<?xml version="1.0" encoding="UTF-8" standalone="no"?>
<svg
   version="1.1"
   id="Layer_1"
   x="0px"
   y="0px"
   viewBox="0 0 2640.6 1154.5"
   style="enable-background:new 0 0 2640.6 1154.5;"
   xml:space="preserve"
   sodipodi:docname="1541459446.svg"
   inkscape:version="1.2.2 (732a01da63, 2022-12-09)"
   xmlns:inkscape="http://www.inkscape.org/namespaces/inkscape"
   xmlns:sodipodi="http://sodipodi.sourceforge.net/DTD/sodipodi-0.dtd"
   xmlns="http://www.w3.org/2000/svg"
   xmlns:svg="http://www.w3.org/2000/svg"><defs
   id="defs323" /><sodipodi:namedview
   id="namedview321"
   pagecolor="#000000"
   bordercolor="#000000"
   borderopacity="1"
   inkscape:showpageshadow="2"
   inkscape:pageopacity="1"
   inkscape:pagecheckerboard="0"
   inkscape:deskcolor="#000000"
   showgrid="false"
   inkscape:zoom="0.49572065"
   inkscape:cx="1183.126"
   inkscape:cy="577.94647"
   inkscape:window-width="2560"
   inkscape:window-height="1351"
   inkscape:window-x="-9"
   inkscape:window-y="-9"
   inkscape:window-maximized="1"
   inkscape:current-layer="Layer_1" />
<style
   type="text/css"
   id="style2">
	.st0{fill:#BDBFC1;}
	.st1{fill:#96989A;}
	.st2{fill:#A9ABAE;}
	.st3{fill:#848688;}
	.st4{fill:#CECFD1;}
	.st5{fill:#A6A9AB;}
	.st6{fill:#727376;}
	.st7{fill:#939497;}
	.st8{fill:#B0B1B3;}
	.st9{opacity:0.73;fill:#98999B;enable-background:new    ;}
	.st10{opacity:0.79;fill:#A5A6A7;enable-background:new    ;}
	.st11{opacity:0.7;fill:#929394;enable-background:new    ;}
	.st12{opacity:0.55;fill:#727374;enable-background:new    ;}
</style>
<g
   id="g318"
   style="stroke:none;stroke-opacity:1;fill:#ffffff;fill-opacity:0">
	<path
   class="st0"
   d="M151.8,40.6c1.5-1.6,3.5-3.4,5.8-2.9c20.6,8.1,41.3,15.9,61.9,24.1c2.2,0.8,4.4,2,6.9,1.6   c5.7-0.8,11.4-2,17-3.3c3.9-0.8,7.7-2.8,11.8-2.5c3-0.1,5.6,1.7,8.5,2.5c1.8,0.6,4,0.9,5.2,2.6c1.1,1.1,0.9,3-0.2,4   c-2.1,3-5.8,4.3-9,5.6c-8.5,3.2-17.5,4.8-26.4,6.2c-1.2,0.1-2.4,0.5-2.8,1.7c-3.7,8.4-7.7,16.8-11.5,25.2c-1.1,2.8-4.7,2.9-7.2,3.1   c0-5.3,0.1-10.6,0-15.9c0-1.5-0.1-3.2-1.5-4.1c-2.3-1.7-4.2-3.8-6.5-5.3c-3.2-0.2-6.3,0.5-9.5,0.6c-7.5,0.5-15-0.5-22.6-0.2   c-0.5,2.2-0.6,4.6-2.1,6.5c-0.6,0.9-1.9,0.7-2.6,0c-2.6-2.2-3.9-5.4-6.3-7.7c-1.5-0.7-3.3-0.7-4.6-1.8c0.3-0.8,0.6-1.7,0.9-2.5   c-3.9-3.4-7.6-7.1-11.4-10.5c-0.5-0.6-1.7-1.2-1.3-2.1c2.2-1.1,4.8-0.6,7,0.4c3.6,1.6,6.8,4,10.7,5c-0.3-3.3-0.8-6.5-0.6-9.8   c1.9-0.3,4.1-0.5,5.7,0.8c3.3,2.7,5.8,6.2,8.8,9.3c1.1,1.4,3,0.7,4.5,0.5c3.9-0.9,8-1,11.8-2.5c-3.7-4.3-7.9-8.2-12.9-11   C170.2,52.1,160.8,46.7,151.8,40.6z"
   id="path4"
   style="stroke:none;stroke-opacity:1;fill:#ffffff;fill-opacity:0" />
	<path
   class="st1"
   d="M2217.3,166.6c4.4,0.4,7.7,3.5,11.1,6c0,2.2,0,4.5,0.5,6.7c2.3,0.9,4.8,0.5,7.2,0.2c2.1,0.5,2.7,3.1,3.7,4.7   c-1.4-0.5-2.7-1.2-4.1-1.4c-1.4,0-2.4,1.1-3.5,1.9c1.2,1.5,2.7,3.1,2.5,5.1c-0.2,2.9-2.3,5.2-4.2,7.3c-0.7-1.1-1.5-2.2-2-3.4   c-0.7-2.1-0.3-4.5-1.6-6.4c-0.7-1.2-2.3-1.6-3.6-1.4c-2.4,0.2-4.8,1.1-7.2,1.6c-1.4-0.8-3-1.1-4.5-1.2c2.8-1.1,5.8-1.9,8-4   c1.8-1.6,1.8-4.2,1.6-6.4C2221.1,172.4,2218,170,2217.3,166.6z"
   id="path6"
   style="stroke:none;stroke-opacity:1;fill:#ffffff;fill-opacity:0" />
	<path
   class="st1"
   d="M2226.7,226.5c3.8,0.8,7.6,1.9,11.2,3.6c4.3,2,7.3,5.9,11.3,8.4c1.5,1.1,3.1-0.7,4.7-1   c1.1,0.4,1.1,1.8,1.7,2.7c4.5,0,9.4-0.2,13.2,2.7c-5.1,1-10.3-0.1-15.3,1.3c-3,0.6-3.6,4.1-5.3,6.2c-1.4-0.4-3-0.6-4-1.8   c-1.2-1.3-1.6-3.1-2.2-4.7c1.8-0.2,3.5-0.3,5.3-0.4c-2.1-2.2-4.8-3.6-6.9-5.7C2236.2,233.6,2230.3,231.4,2226.7,226.5z"
   id="path8"
   style="stroke:none;stroke-opacity:1;fill:#ffffff;fill-opacity:0" />
	<path
   class="st1"
   d="M2292.3,234.2c5.9-1.9,12.1-2,18.2-2.7c-3.7,3.2-8.9,3.5-13.4,5.1c-1.7,1.5-2.2,4.1-4.2,5.5   c-2.1,0.9-4.3,0.8-6.5,0.5c0.1-0.6,0.2-1.9,0.3-2.6c-1.6,1.2-2.4,3.1-4.1,4.2c-3.8,2.8-6.5,6.9-11,8.6c1.4-2.1,3.1-4,4.6-6   c1.9-2.4,3.7-5,6.3-6.6C2285.9,238.2,2288.6,235.3,2292.3,234.2z"
   id="path10"
   style="stroke:none;stroke-opacity:1;fill:#ffffff;fill-opacity:0" />
	<path
   class="st1"
   d="M2307.5,251.1c2.1-1.3,4.6-1.6,7.1-1.8c2.2,0,4.5-0.1,6.4,1.1c-2.9,0.6-6.1,0.4-8.8,1.9   c-2.2,1.4-2.6,4.2-3.1,6.5c1.3,0.4,2.7,0.8,3.9,1.7c-4.5,1.5-9.2,2.5-14,1.7c-0.4,1.5-0.8,2.9-1.3,4.4c-1.8-1.5-3.5-3.3-3.7-5.7   c-0.3-0.8,0.3-1.7,1.2-1.5c2.5-0.4,5.2,0.3,7.7-0.3C2306.1,257.4,2304.7,252.8,2307.5,251.1z"
   id="path12"
   style="stroke:none;stroke-opacity:1;fill:#ffffff;fill-opacity:0" />
	<path
   class="st1"
   d="M2247.6,325c2.4-0.8,4.8,0.2,7.1,1c2.1,0.8,4.1-0.7,6.2-0.6c0.6,0.3,1.2,0.7,1.9,1c3.3-0.1,6.4-3.1,9.7-1.4   c4.3,2,8.7,4.1,12,7.6c-4.7-1.1-9-4.1-14-3.8c-2.8,0.4-5.7,0.8-8.3,1.8c-2.3,0.7-1.7,3.5-2.1,5.4c-1.4-0.1-2.7-0.2-4-0.2   c0.1-1.7,0.3-3.4,0.5-5c-4.2-1.7-9-2.4-13.4-1.2c-3.2,0.7-6,2.4-9.2,3.3C2238.2,329.7,2242.5,326.5,2247.6,325z"
   id="path14"
   style="stroke:none;stroke-opacity:1;fill:#ffffff;fill-opacity:0" />
	<path
   class="st1"
   d="M2348.8,345.8c4.6-2.5,9.8-3.6,14.9-4.4c-1.1,1.6-2.7,2.8-4.5,3.7c0.4,2.7,0.3,5.5,0.5,8.2   c0,1,0.8,1.8,1.7,2.1c2.6,0.8,5.4,0.2,7.9,1.6c-0.5,0.7-0.8,1.5-1.4,2.2c-1.3,0.2-2.6-0.1-3.8-0.3c0.8,0.6,1.5,1.4,2.1,2.2   c-3.8-0.9-7.9-2.2-11.6-0.5c-1.6,0.7-2.1,2.4-2.3,3.9c1.1,1.3,1.2,3,0.5,4.6c-0.9,2.5-1.3,5.2-1.9,7.8c-5.6-3.9-8.1-11.3-7.1-17.9   c-1.1-0.1-2.3-0.1-3.4-0.1c1.9-1.3,3.8-2.8,6.1-3.6c1.8-0.6,3.6-1.9,3.9-3.9C2350.7,349.4,2349.5,347.6,2348.8,345.8z"
   id="path16"
   style="stroke:none;stroke-opacity:1;fill:#ffffff;fill-opacity:0" />
	<path
   class="st1"
   d="M2267,344.7c4.4,0.5,7.9,3.6,11,6.4c-0.2,2.1-0.7,4.6,1.1,6.2c1.7,1.9,4.2,0.1,6.3,0.4c2.1,0.7,3,3,4,4.7   c-1.5-0.4-3-1.2-4.6-1.1c-1.2,0.2-2.3,1-3.3,1.6c1,1.4,2.7,2.7,2.6,4.6c-0.1,3-2,5.5-3.4,8c-2.2-1.3-3.1-3.9-3.1-6.3   c0-1.9-0.9-3.8-2.4-5c-3.2-0.3-6.3,0.9-9.4,1.4c-1.3-0.9-2.9-1.1-4.4-1.3c2.6-1,5.2-2.2,7.7-3.6c2.5-1.3,1.6-4.6,1.6-6.8   C2270.6,350.3,2267.2,348.1,2267,344.7z"
   id="path18"
   style="stroke:none;stroke-opacity:1;fill:#ffffff;fill-opacity:0" />
	<path
   class="st1"
   d="M2420.2,392.6c4.5,1.1,9,2.7,13.2,4.8c3.8,1.8,6.1,5.8,9.9,7.5c1.6-0.1,3.1-1,4.8-1.2c0.1,0.9,0.3,1.9,0.5,2.8   c2.9-0.1,6-0.7,8.7,0.6c1.3,0.6,2.6,1.2,3.9,1.8c-5.4,1.8-11.9-0.9-16.8,2.7c-1.3,1.6-1.6,4-3.5,5.1c-0.1-0.4-0.3-1.1-0.4-1.5   c-0.7,0.4-1.3,0.8-2,1.2c-1.3-2.1-2.6-4.1-3.3-6.4c1.7-0.2,3.4-0.3,5.2-0.5C2434.1,403.3,2426.2,399,2420.2,392.6z"
   id="path20"
   style="stroke:none;stroke-opacity:1;fill:#ffffff;fill-opacity:0" />
	<path
   class="st1"
   d="M2480.1,398.3c2.2-3.1,6-4.2,9.7-4.5c-2.3,4.5-1.2,9.6-2,14.3c2.1,0.2,4.3,0.6,6.4,1.2c-0.4,0.9-0.7,1.8-1,2.7   c-2.6-0.3-5.1-0.7-7.7-1c-1.5,2.4-3.5,4.4-4.4,7.1c-0.9,2.4-1.4,4.9-2.2,7.3c-1.6-1.8-2.8-3.9-3.3-6.2c-0.5-2-1-4.2,0-6.1   c0.8-1.4,1.8-2.6,2.7-3.9c-1.5-0.5-3.1-1.1-4.6-1.7c2.1-1.4,4.7-1.6,6.8-3C2481.7,402.7,2480.5,400.3,2480.1,398.3z"
   id="path22"
   style="stroke:none;stroke-opacity:1;fill:#ffffff;fill-opacity:0" />
	<path
   class="st1"
   d="M2354.1,417.5c2-0.6,4.2-0.1,6.2,0.4c2.6,0.7,5.3,1.3,7.5,2.7c-4,1-8.1-0.2-12,0.7c-2.3,0.5-4.5,1-6.7,1.6   c0.4,1.2,0.9,2.4,1.1,3.7c-1.3,0.6-2.6,1-4,0.9c-0.8-1.3-0.6-2.9-0.8-4.3c-2.4-0.4-4.8-0.7-7.2-0.6c-3.5,0.1-6.9,1-10.4,1   c1.9-2.1,4.7-2.9,7.2-4.2c2-1.1,4.4-0.7,6.6-0.3c1.9,0.4,3.7-1.2,5.7-0.5C2349.6,419.3,2351.9,418.1,2354.1,417.5z"
   id="path24"
   style="stroke:none;stroke-opacity:1;fill:#ffffff;fill-opacity:0" />
	<path
   class="st2"
   d="M2191.4,445.1c3.9,0.1,7.8,0.6,11.8,0.5c-3.4,2.1-5.5,6.2-4.4,10.1c0.5,2.7,2.7,4.6,4.9,6   c-3.4,5.9-7.1,11.6-10.6,17.4c-2.8-0.7-5.6-1.4-8.4-2.1c-0.1-8.8-0.2-17.5-0.2-26.3C2186.8,448.8,2189.1,447,2191.4,445.1z"
   id="path26"
   style="stroke:none;stroke-opacity:1;fill:#ffffff;fill-opacity:0" />
	<path
   class="st3"
   d="M2203.1,445.6c2.6-0.8,5.4-0.6,7.8,0.5c2.4,2.3,4.2,5.7,3.4,9.1c-0.4,2.9-2.6,5-4.9,6.5   c2.8,6.3,5.9,12.4,8.8,18.6c0.6,1.3,1.2,2.5,1.8,3.8c-3.9-0.2-7.8-0.4-11.6-0.7c4.9,10.7,10.1,21.3,15.2,32   c4.5,0.6,8.8,1.9,13.3,2.3c5.3-4.7,10.2-9.8,15.4-14.6c3.1-3.1,6.5-5.9,9.4-9.2c-3.5-1.6-7.4-2.3-10.8-4   c5.8-5.3,11.4-10.8,17.1-16.3c-1.7-2.1-3.5-4.4-3.3-7.2c-0.2-3.3,1.9-6.2,4.5-7.9c2.7-1,5.6-0.5,8.2,0.4c1.2,1.6,2.6,3.2,3.1,5.2   c0.8,2.8,0,6-2,8.2c-1.3,1.4-3.2,2-4.9,2.7c1.1,6.7,2.6,13.3,3.9,20c0.3,1.5,0.6,3,0.9,4.6c-3.7-1.3-7.4-2.6-11.1-3.8   c2.2,11.1,4.4,22.2,6.6,33.4c0.1,2,2.3,2.4,3.7,3.2c2.9,1.2,5.6,3,8.6,4.2c1.7-0.4,3.1-1.5,4.6-2.3c8.1-4.5,16.1-9,24.2-13.4   c0.3-0.2,0.8-0.5,1.1-0.6c-1.3-1-2.7-2-4.1-3c-1.9-1.3-3.8-2.6-5.6-3.9c1.8-1,3.6-2,5.4-3c5.1-2.8,10.2-5.6,15.3-8.5   c-0.9-2.3-1.9-4.9-1.2-7.4c0.5-2.4,2.3-4.1,3.8-5.9c2.7-0.7,5.5-0.9,8.1,0.3c2,1.7,3.7,4,3.9,6.7c0.4,3.4-1.4,6.8-4.4,8.5   c-1.7,0.9-3.6,0.8-5.4,0.9c-0.3,6.7-0.6,13.4-0.8,20.1c-0.1,1.6-0.2,3.2-0.2,4.8c-3.3-2.2-6.6-4.4-9.9-6.7c-0.5,12-1,24.1-1.5,36.1   c3.7,3.2,7.4,6.5,11,9.9c11-2.6,22-5.1,33-7.7c-2.6-3.1-5.3-6.1-7.8-9.2c2.8-0.7,5.7-1.3,8.5-2c4.7-1.2,9.5-2.1,14.2-3.3   c-0.2-2.2-0.6-4.5,0.3-6.6c0.7-2,2.3-3.4,3.9-4.7c2.7-0.9,5.6-0.6,8.2,0.5c1.7,1.9,3.3,4.1,3.4,6.8c0.3,3.6-1.9,7.4-5.3,8.7   c-2.2,0.8-4.5,0.2-6.6-0.1c-1.9,6.5-3.9,13-5.8,19.6c-0.4,1.3-0.8,2.6-1.2,4c-2.6-2.7-4.5-6.3-8.1-7.9c-3.6,11-6.7,22.1-10,33.1   c2.7,3.8,5.2,7.7,7.7,11.7c11.2,0.6,22.3,1.1,33.5,1.6c-1.8-3.7-3.6-7.3-5.4-11c1.3,0.1,2.7,0.1,4.1,0.2c6.4,0.4,12.8,0.6,19.2,0.7   c0-3.5,1.7-6.6,4.2-8.9c2.6-0.6,5.2-1,7.7,0.2c3.2,2,5.1,6,4.1,9.8c-0.8,3.5-3.9,6.4-7.5,6.5c-2.2,0.1-4-1.1-5.8-2   c-3.8,6-7.3,12.2-11.1,18.3c-0.5,0.9-1.1,1.7-1.5,2.6c-0.7-1.2-1.3-2.4-1.9-3.6c-0.3-0.1-1-0.2-1.3-0.3c-0.1-2.5-1-4.9-2.2-7.1   c-5.8,9.6-11.5,19.2-17.3,28.8c-1.4,1.8,0.1,3.8,0.7,5.5c1.5,3.2,2,6.8,3.5,9.9c3.9,1.7,8.1,2.8,12.2,4.3   c6.5,2.2,12.9,4.4,19.4,6.5c-0.8-4.1-1.7-8.1-2.5-12.1c3.6,1.2,7.2,2.4,10.8,3.6c3.8,1.2,7.6,2.6,11.5,3.8c0.9-2.8,2.4-5.5,5.2-6.8   c2.4-0.8,5-0.5,7.3,0.5c3.3,2.6,4.9,7.5,2.9,11.4c-1.7,3.9-6.9,5.9-10.7,3.8c-1.4-0.8-2.4-1.9-3.5-2.9c-5,4.8-9.9,9.7-14.9,14.4   c-0.8,0.7-1.6,1.5-2.4,2.3c-0.9-4-1.7-8.1-2.5-12.1c-6.6,6.4-13.1,12.8-19.7,19.1c-1.8,1.7-3.5,3.4-5.2,5.1   c0.6,5.1,0.9,10.2,1.2,15.4c6.6,4.5,13.2,9.1,19.9,13.6c2.7,1.9,5.5,3.8,8.3,5.7c0.2-4,0.2-8.1,0.6-12.1c4.5,2.3,8.3,5.8,12.8,8.3   c2.3,1.7,4.5,3.4,6.9,4.8c1.2-1.8,2.6-3.5,4.6-4.6c2.4-0.7,4.9-0.5,7.2,0.5c2.4,2.1,4.2,5.1,3.8,8.4c-0.3,4.5-4.8,8.5-9.4,7.5   c-3.2-0.4-5.2-3.1-6.5-5.8c-4.8,2.3-9.4,5.1-14.1,7.6c-2.1,1.1-4.1,2.3-6.2,3.3l-0.5,0.3c0.2-2.1,0.2-4.1,0.3-6.2   c0.1-2,0.1-4.1,0.2-6.1c-1,0.5-2,1.1-3,1.6c-9,4.9-18,9.8-26.9,14.8c-0.6,3.8-1.1,7.5-1.9,11.3c-0.2,1.4-0.8,3,0.4,4.2   c7.2,8.4,14.4,16.8,21.6,25.1c1.2-3.9,2.3-7.9,3.6-11.7c3.8,4.2,7.4,8.6,11.1,12.9c0.8,0.9,1.5,1.8,2.3,2.7   c0.8,0.9,1.6,1.8,2.5,2.7c1-0.9,2.1-1.8,3.2-2.6c2.5-0.9,5.2-0.5,7.7,0.5c1.8,1.8,3.4,4,3.5,6.6c0.4,3.8-2,7.9-5.7,9   c-2.9,1-6.2-0.1-8.2-2.3c-1.4-1.5-1.6-3.6-2.5-5.4c-4.7,0.7-9.2,2.1-13.8,3.1c-3,0.7-6,1.4-8.9,2.1c1.1-4,2.3-7.9,3.5-11.8   c-11,2.6-22,5-32.9,7.7c-1.7,4.3-3.7,8.6-5.7,12.8c5.1,10.5,10.2,21,15.4,31.5c2.2-3.3,4.2-6.9,6.3-10.3   c3.8,7.2,7.1,14.7,10.9,21.9c1.4-0.6,2.9-1.3,4.5-1.4c1.7-0.1,3.3,0.6,5,1.1c1.7,1.8,3.3,3.9,3.5,6.4c0.4,3.5-1.4,7.4-4.7,8.9   c-3.3,1.6-7.5,0.4-9.6-2.6c-1.6-2-1.7-4.8-1.8-7.3c-4.7-0.2-9.4-0.5-14.1-0.7c-3.1-0.1-6.2-0.3-9.3-0.4c2-3.5,4.3-6.9,6.2-10.5   c-9-0.4-18.1-0.8-27.1-1.3c-2.2-0.1-4.4-0.5-6.5-0.1c-3.2,3.8-6.1,7.9-9.4,11.6c2.4,11.6,4.7,23.2,7.1,34.7c3-2.7,5.7-5.6,8.7-8.3   c1.7,8.1,3.3,16.2,5,24.3c2.7-0.7,5.3-0.1,7.9,0.8c1.6,2.1,3.3,4.4,3.3,7.2c0.1,3.9-2.7,7.9-6.6,8.6c-3.6,0.7-7.4-1.5-8.8-4.9   c-1.1-2.4-0.5-5.2-0.1-7.7c-3.1-1-6.2-2.1-9.3-3.1c-4.3-1.4-8.5-2.9-12.8-4.3c2.8-2.9,5.8-5.6,8.6-8.4   c-10.7-3.7-21.4-7.3-32.1-10.9c-3.6,2.8-7.4,5.6-11.2,8.2c-0.5,11.9-1,23.8-1.5,35.6c3.5-1.8,6.9-3.8,10.4-5.6   c-0.3,8.3-0.7,16.6-1.1,24.8c1.8,0.2,3.7,0.6,5.5,1.3c1.8,1.9,3.5,4.1,3.6,6.9c0.4,4.3-2.9,8.9-7.4,9.1c-4.5,0.5-8.6-3.6-8.6-8   c-0.3-2.3,1.2-4.3,1.7-6.5c-0.9-0.9-2-1.6-3-2.2c-5.5-3.7-11-7.3-16.3-11.2c3.4-1.9,6.8-3.8,10.3-5.7c-9.4-6.5-19-13-28.5-19.4   c-0.3,0.1-1,0.4-1.4,0.5c6.8,25.7,13.6,51.4,20.6,77c-7.4,0.2-14.7,0-22.1,0c-0.5-3.9-0.4-7.9-0.4-11.8c-0.1-13.5-0.6-27-0.7-40.5   c-8.1-0.3-16.2,0.1-24.3-0.1c-1.2-4.9-2.3-9.8-3.3-14.7c-5,1-10,2.2-15,3.4c3.1,3.7,6.4,7.3,9.4,11c-1.4,0-2.8,0.1-4.1,0.1   c-3.2-3.8-6.5-7.6-9.7-11.3c-4.7,0.5-9.5,0.9-14.2,1.2c-6,10.1-12.3,20-18.1,30.2c3.8,0.2,7.7,0.4,11.5,0.6   c-4.2,7.1-8.5,14-12.7,21.1c-0.3,0.5-0.6,1-0.9,1.6c1.2,1.1,2.7,2.1,3.3,3.7c0.9,1.9,0.3,4,0.1,6c-1.7,0-3.3,0-4.9-0.1   c-0.3-4.6-0.2-9.1-0.1-13.7c3.1-5.2,6.3-10.3,9.4-15.5c-5.9-0.3-11.9-0.7-17.8-0.8c2.7,5.1,4.8,10.5,7.8,15.5c-1.3,0-2.7,0-4,0   c-3.1-6.4-6.2-12.7-9.3-19.2c3.9,0.2,7.7,0.4,11.6,0.5c-5.1-10.7-10.3-21.3-15.5-32c-4.4-0.8-8.7-1.6-13-2.6   c-2.3,2.3-5.5,4.2-6.1,7.6c-3.5,13.4-7.3,26.8-10.8,40.2c-1.8,6.6-3.6,13.1-5.4,19.7c2.5,0,4.9,0.1,7.4,0.2   c-2.3,0.1-4.6,0.3-6.9,0.3c-14.5-0.5-29.1-0.1-43.7-0.2c3.6-11.5,8.1-22.8,11.4-34.4c1.2-2.5,2.1-5.1,2.9-7.8   c4.4-12.9,8.8-25.7,13.1-38.6c-3.2-1.5-6.4-3.1-9.5-4.8c-1-0.4-2.1-1.3-3.1-0.5c-6.9,3.7-13.6,7.5-20.5,11.1c0-1.3,0-2.5,0-3.7   c5.8-3.2,11.7-6.3,17.5-9.6c-5.8-4.1-11.9-7.9-17.7-12c0-1.5,0-2.9,0-4.4c1.7,1.2,3.4,2.4,5.1,3.6c22.8-37.7,45.5-75.5,68.3-113.2   c4-6.8,8.3-13.5,12.2-20.4c2.5-6.4,4.5-13.1,6.8-19.6c-0.2-0.1-0.6-0.3-0.9-0.4c-16.3,15.8-32.7,31.5-49.1,47.3   c-14.3,13.7-28.5,27.6-42.9,41.2c0-1.5-0.1-3-0.1-4.5c30.1-28.8,60-57.8,90.1-86.6c-1-1.5-2-2.9-2.9-4.4   c-29.1,15.8-58,31.9-87.1,47.6c0-1.2,0-2.5,0-3.7c28.5-15.7,57-31.3,85.6-46.9c-0.6-1.8-1.1-3.5-1.7-5.3   c-27.2,6.1-54.3,12.5-81.5,18.7c-3.4,0.9-6.8,1.3-10,2.6c-0.7-1.1-1.3-2.2-1.9-3.3c30.9-7.1,61.8-14.3,92.7-21.3   c-0.2-1.9-0.4-3.8-0.5-5.7c-55.8-3-111.6-6.1-167.4-9.2c-1,17.6,0.5,35.4,4,52.6c8.4-1.9,16.8-3.9,25.2-5.8   c-0.1,1.1-0.2,2.3-0.3,3.5c-8.1,1.9-16.2,3.7-24.3,5.6c3.4,17,9,33.5,16.5,49.2c2.4-1.2,4.7-2.5,7.1-3.8c0,1.3,0,2.5,0,3.8   c-1.9,1-3.7,2-5.5,3c0.2,0.6,0.5,1.3,0.7,1.9c-3.2,0.1-6.5,0.4-9.7,0.4l0-0.5c1.9,0,3.9,0,5.9,0c-2.7-5.3-4.9-10.9-7.8-16.1   c-4.8,7.8-9.5,15.7-14.4,23.5c0-2.1,0-4.2,0-6.3c4.1-6.9,8.4-13.7,12.6-20.6c0.9-1.1,0.2-2.5-0.2-3.7c-1.4-3.8-2.6-7.6-3.9-11.4   c-10.6-3.7-21.3-7.4-32-11.1c0.7,4.1,1.6,8.1,2.3,12.1c-2.6-0.8-5.2-1.8-7.8-2.7c-4.8-1.6-9.5-3.3-14.3-4.9   c-0.7,3.1-2.4,6.4-5.7,7.5c-4.5,1.7-9.7-1.8-10.4-6.4c-0.9-3.7,1.1-7.4,4.1-9.6c2.7-0.9,5.6-0.8,8.2,0.4c0.7,0.8,1.4,1.6,2.1,2.5   c0.8-0.7,1.5-1.4,2.3-2.1c5.2-4.9,10.3-9.9,15.5-14.8c0.9,4,1.6,8,2.5,12c8.4-7.9,16.7-15.8,24.9-23.8c-0.4-4.2-0.8-8.3-1-12.5   c-0.1-1.3,0-3-1.3-3.7c-9-6.3-18-12.6-27.1-18.8c-0.2,4.1-0.4,8.2-0.6,12.3c-2.1-1.4-4.1-2.8-6.1-4.2c-4.5-3.1-8.9-6.3-13.4-9.2   c-1.3,2.6-3.4,5.1-6.5,5.5c-4.7,0.9-9.1-3.2-9.2-7.8c-0.4-3.4,1.6-6.5,4.2-8.5c2.7-0.9,5.6-0.8,8.2,0.4c1.2,1.4,2.3,2.9,3.3,4.5   c2.5-1.4,5-2.8,7.5-4.1c4.5-2.4,9-4.9,13.5-7.2c-0.2,4.1-0.4,8.2-0.6,12.4c10-5.3,19.9-10.7,29.9-16.1c0.6-4.7,1.5-9.4,2.4-14   c-7.5-8.9-15-17.8-22.5-26.6c-1.2,3.9-2.4,7.8-3.6,11.7c-0.7-0.7-1.3-1.5-2-2.2c-4.1-4.8-8.1-9.6-12.1-14.4   c-2.2,1.3-4.6,2.7-7.2,2.1c-4.8-0.8-7.7-6.2-6.4-10.7c0.6-2.8,2.8-4.8,5.3-6c2-0.3,4.1-0.1,6.1,0.4c2.2,1.4,3.3,3.9,4.6,6   c3-0.3,5.8-1.3,8.7-1.8c4-0.8,7.9-1.8,11.9-2.6c-1.2,3.9-2.4,7.8-3.6,11.7c10.9-2.4,21.8-4.9,32.7-7.4c1.9-4.4,3.8-8.9,5.9-13.2   c-5.1-10.7-10.2-21.4-15.4-32c-1.4,2-2.4,4.2-3.2,6.6c-1.3,1-2.3,2.3-3.2,3.6c-0.3-0.7-0.7-1.4-1-2c-3.3-6.5-6.2-13.2-9.6-19.7   c-2,1-4.2,2.1-6.5,1.7c-4.4-0.6-7.4-5.2-6.8-9.4c0.3-3.1,2.4-5.8,5.1-7.1c2.2-0.6,4.6-0.4,6.7,0.5c1.4,1.2,2.8,2.5,3.5,4.3   c0.5,1.6,0.6,3.3,0.7,5c4.6,0.2,9.2,0.4,13.8,0.7c3.2,0.2,6.4,0.4,9.7,0.6c-1.9,3.6-4.2,6.9-6.2,10.5c11.2,0.7,22.4,1.3,33.6,1.9   c3-3.9,6.1-7.8,9.3-11.6c-1.3-6.9-2.7-13.9-4.1-20.8c-1-4.7-1.7-9.4-2.9-14c-3.1,2.3-5.9,5-8.7,7.7c-0.3-1.5-0.6-3.1-0.9-4.6   c-1.3-6.5-2.5-13-3.9-19.4c-2.3,0.3-4.9,0.9-7-0.4c-3.8-1.9-5.5-6.8-4-10.7c0.6-2,2.2-3.5,3.7-4.8c2.7-0.9,5.6-0.8,8.2,0.4   c1.3,1.4,2.6,3,3.2,4.9c0.6,2.1,0.1,4.3-0.1,6.4c4.6,1.5,9.2,3.2,13.8,4.8c2.8,1,5.7,2,8.6,3c-2.7,2.9-6,5.2-8.4,8.4   c9.2,3.4,18.6,6.4,27.8,9.8c1.3,0.4,2.6,1.1,4.1,1.1c1.8-1,3.2-2.4,4.9-3.5c1.9-1.4,3.9-2.8,5.9-4.2c0.6-12,1.2-24,1.8-35.9   c-2.8,1.5-5.6,3-8.4,4.5c-0.7,0.3-1.4,0.7-2,1c0-1.5,0.1-2.9,0.2-4.4c0.3-6.7,0.7-13.4,1-20.2c-2-0.3-4.1-0.3-5.8-1.5   c-3-2-4.4-5.9-3.5-9.3c0.5-2.4,2.2-4.2,4-5.7c1.5-0.4,3.1-0.7,4.7-0.7c1.2,0.3,2.3,0.7,3.5,1.1c1.7,1.8,3.3,3.9,3.5,6.4   c0.3,2.4-0.7,4.6-1.6,6.7c4.7,3.3,9.5,6.6,14.3,9.9c1.8,1.3,3.6,2.5,5.4,3.8c-2.1,1.1-4.2,2.3-6.3,3.5c-1.4,0.7-2.7,1.5-4.1,2.2   c0.5,0.3,0.9,0.7,1.4,1c5.8,4.1,11.7,8.1,17.5,12.1c3.2,2,6,4.5,9.4,6.2c2-0.5,3.9-1.5,5.9-2.2c2.1-0.9,4.4-1.4,6.5-2.5   c0.9-1.4,1.1-3,1.6-4.5c3-9.9,6-19.8,9-29.7c-3.8,0.8-7.6,1.7-11.4,2.5c0.5-1.6,0.9-3.1,1.4-4.7c1.8-6.3,3.9-12.4,5.6-18.7   c-2.9-1-5.9-2.8-6.8-5.9c-1.4-4,0.5-8.5,3.9-10.8c2.7-0.9,5.6-0.7,8.2,0.5c1.9,2.1,3.7,4.6,3.5,7.6c0.1,2.8-1.6,5-3.2,7.1   c5,5.9,10,11.8,15,17.7c0.2,0.2,0.5,0.7,0.7,0.9c-3.8,0.8-7.6,1.7-11.4,2.6c7.5,8.9,15.1,17.8,22.6,26.7c4.3-0.5,8.7-0.9,13-1.1   c1.2,0.1,1.8-0.9,2.4-1.8c5.8-9.5,11.7-19,17.5-28.5c-3.9-0.3-7.8-0.4-11.6-0.7c0.6-1.1,1.3-2.2,2-3.3c3.5-5.8,7.2-11.5,10.6-17.4   c-2.2-1.5-4.4-3.3-4.9-6C2197.6,451.8,2199.7,447.7,2203.1,445.6 M2196.9,479.4c5.9,0.4,11.7,0.7,17.6,1.1   c-2.5-5.6-5.1-11.2-8-16.7C2203.2,468.9,2200,474.1,2196.9,479.4 M2140.7,469.3c-1.9,5.9-3.7,11.9-5.5,17.8   c5.8-1,11.5-2.5,17.3-3.8C2148.7,478.5,2144.7,473.9,2140.7,469.3 M2257.1,488.8c5.6,1.9,11.2,4,16.8,5.7   c-1.3-6.1-2.3-12.2-3.7-18.2C2265.6,480.3,2261.3,484.6,2257.1,488.8 M2204.6,486.5c-5.3,8.7-10.6,17.4-16,26   c3.7,0.3,7.4,0.4,11.1,0.7c6.6,0.1,13.1,0.9,19.6,1.1c-4.5-9.4-8.9-18.8-13.4-28.1C2205.7,485.1,2204.7,486,2204.6,486.5    M2135.5,521.4c10-2.2,20-4.7,30-6.8c-6.7-8.2-13.7-16.2-20.5-24.3C2141.7,500.7,2138.7,511.1,2135.5,521.4 M2078.6,511.2   c5.3-2.7,10.5-5.6,15.8-8.4c-4.9-3.5-9.8-6.9-14.8-10.2C2079.1,498.8,2078.9,505,2078.6,511.2 M2241.1,518.5   c4.2,1.6,8.5,2.8,12.8,4.3c5.5,1.8,10.9,4,16.5,5.9c-2.1-10.6-4.2-21.3-6.4-31.9C2256.2,503.9,2248.7,511.3,2241.1,518.5    M2313.5,513.3c-0.8,0.3-0.3,1.1,0.3,1.3c4.6,3,9.1,6.2,13.8,9.3c0.5-6.2,0.6-12.5,0.7-18.7   C2323.3,507.7,2318.4,510.5,2313.5,513.3 M2087.1,544.4c4.7-2.5,9.3-5.1,13.9-7.6c4.3-2.4,8.9-4.5,13.2-7.1c-0.3-0.7-1-1-1.5-1.4   c-8-5.4-15.9-11-23.9-16.4C2088.2,522.6,2087.6,533.5,2087.1,544.4 M2152.8,521.1c2.8,14.4,5.9,28.8,8.8,43.2   c9,43.7,17.9,87.4,26.8,131.1c1.7-0.2,3.4-0.3,5.2-0.3c2.1-43.4,4.2-86.9,6.3-130.3c0.8-16,1.6-32.1,2.3-48.1   C2185.6,516,2168.9,517.2,2152.8,521.1 M2205.5,517c-0.8,15.9-1.5,31.9-2.3,47.8c-2.1,43.5-4.2,86.9-6.2,130.4   c1.6,0.3,3.2,0.7,4.9,1c13.2-43.7,26.4-87.4,39.6-131c3.9-13,7.8-25.9,11.8-38.9C2237.8,520.8,2221.7,517.7,2205.5,517    M2103.7,539.3c4.1,8.3,8,16.7,12.1,25c21.5,44.6,43,89.2,64.7,133.7c1.5-0.6,3.1-1.3,4.7-1.8c-8.9-43.9-17.9-87.8-26.9-131.7   c-2.9-14.3-5.8-28.5-8.7-42.8C2133.6,525.5,2118,531.3,2103.7,539.3 M2290.3,538.3c3,2.2,6.2,4.2,9.3,6.3c5.6,3.7,11,7.6,16.7,11.2   c0.4-10.9,0.9-21.8,1.3-32.6C2308.4,528.2,2299.4,533.3,2290.3,538.3 M2256.3,527.4c-3.6,12.2-7.4,24.3-11,36.5   c-13.5,44.4-26.9,88.9-40.3,133.3c1.5,0.7,3,1.5,4.5,2.3c10.3-17,20.5-34.1,30.8-51.1c11.2-18.4,22.1-36.9,33.4-55.2l0-0.3   c9-14.4,17.6-29.1,26.4-43.6C2286.5,540,2271.8,532.5,2256.3,527.4 M2026.3,531.5c1.1,6.1,2.4,12.2,3.6,18.3   c3.5-3.2,6.9-6.5,10.4-9.7l0-0.1c1-0.9,2-1.8,3-2.8c-0.4-0.1-1.3-0.4-1.8-0.6C2036.4,535,2031.4,533.1,2026.3,531.5 M2078,555.6   c-5.9,4.5-11.6,9.3-17,14.5c37.4,44.2,75,88.3,112.4,132.5c1.4-1,2.7-2,4-3c-12.3-25.5-24.6-51-36.9-76.5   c-9.5-19.8-19.2-39.5-28.6-59.4l-0.1,0c-3.6-7.6-7.4-15.2-11-22.9C2092.8,545.1,2085.2,550.2,2078,555.6 M2039.8,547.5   c2.1,10.7,4.2,21.3,6.3,32c4.1-3.7,8-7.6,12-11.5c3.6-3.4,7.3-6.7,10.8-10.3C2059.2,554.2,2049.5,550.9,2039.8,547.5 M2364,553.8   c-0.8,0.2-1.7,0.4-2.5,0.6c0.8,1,1.6,2,2.5,2.9c3.2,3.7,6.3,7.4,9.5,11c1.8-6,3.6-12,5.3-18C2373.9,551.4,2369,552.6,2364,553.8    M2273.5,599.9c-9.2,14.9-18.1,29.9-27.2,44.9c-11.3,18.9-22.8,37.7-34.1,56.6c1.3,1.1,2.6,2.3,3.9,3.5   c19.2-18.3,38.3-36.8,57.4-55.2c22.4-21.5,44.7-43.1,67.1-64.6c-11-13-23.8-24.5-37.8-34.2C2293.1,567.4,2283.1,583.6,2273.5,599.9    M2333.9,571.9c6.9,8,13.8,16.1,20.7,24.1c3.1-10.4,6.2-20.7,9.3-31.1C2353.9,567.2,2343.9,569.6,2333.9,571.9 M2026.4,612.7   c47.1,32.1,94.1,64.3,141.1,96.5c1.2-1.4,2.3-2.8,3.5-4.3c-37.6-44.1-75-88.3-112.5-132.5C2046.2,584.4,2035.4,598,2026.4,612.7    M1983.5,584.9c1.7,4.3,3.9,8.4,5.9,12.6c0.7,1.4,1.2,2.9,2.3,4c1.5-2.5,3.1-4.9,4.5-7.5c1.8-2.7,3.4-5.4,5-8.2   c-1.5-0.1-3-0.2-4.4-0.2C1992.3,585.5,1987.9,585.1,1983.5,584.9 M2273.4,654.5c-18.3,17.6-36.7,35.1-54.8,52.9   c0.5,1.7,2,3,2.8,4.6c17.3-9.4,34.6-19,51.9-28.3l0-0.1c32.5-17.6,64.8-35.5,97.2-53.2c-7.3-15.3-16.7-29.6-27.7-42.6   C2319.7,610,2296.6,632.2,2273.4,654.5 M2000.4,596.7c4.6,9.7,9.2,19.4,14,29.1c5.5-9.1,11.2-18.2,16.6-27.4   C2020.8,597.8,2010.6,597.2,2000.4,596.7 M2398.1,606.2c1.4,2.9,2.8,5.8,4.3,8.6c1.2,2.7,2.6,5.4,4,8c3.2-5.2,6.4-10.4,9.3-15.7   c-4.5-0.4-9-0.6-13.4-0.6v-0.2C2400.8,606.3,2399.4,606.3,2398.1,606.2 M2024.7,615.6c-8.9,14.7-15.9,30.6-20.9,47   c53.3,18.2,106.5,36.5,159.8,54.6c0.7-1.7,1.5-3.4,2.3-5.1C2118.8,679.9,2071.8,647.6,2024.7,615.6 M2367.1,615.6   c2.6,5.4,5.4,10.7,8,16.1c2.1,4.3,4,8.7,6.2,12.9c5.5-9.2,11-18.4,16.5-27.5C2387.6,616.5,2377.4,616.1,2367.1,615.6 M2273.1,687.5   v0.1c-16.9,8.9-33.5,18.3-50.3,27.4c0.7,1.7,0.9,3.8,2.1,5.2c16.4-3.6,32.8-7.5,49.2-11.3c20.9-4.8,41.9-9.7,62.8-14.5   c4.5-1.2,9.1-1.8,13.5-3.3c1-0.1,2.1-0.3,3.1-0.5c11.7-2.7,23.3-5.4,35-8.1c-1.6-9.2-4.2-18.2-7.3-27c-2.6-7.6-5.7-15.1-9.2-22.3   C2339,651.3,2306.1,669.4,2273.1,687.5 M1968.5,644.6l0,0.2c-4.1,0.5-8,1.6-12,2.6c0.1,0.8,0.2,1.7,0.8,2.4   c3.3,3.9,6.7,7.7,9.9,11.7c1-1.7,1.4-3.6,2-5.4c1.3-4.1,2.6-8.2,3.8-12.4C1971.4,644,1969.9,644.3,1968.5,644.6 M1974.9,654.2   c6.6,8.1,13.4,16.1,20.2,24c0.8-0.5,0.8-1.7,1.1-2.4c2.7-9.5,5.7-18.9,8.6-28.3C1994.8,649.7,1984.9,652,1974.9,654.2    M2002.8,665.8c-4.9,16.5-7.9,33.6-8.7,50.8c55.8,3.1,111.7,6.1,167.5,9.2c0.3-1.8,0.6-3.5,1-5.3   C2109.4,702.2,2056.1,684,2002.8,665.8 M2421.1,666.8c0.9,4.6,1.9,9.1,2.8,13.7c0.3,1.6,0.5,3.4,1.4,4.8l0-0.7   c4.6-3.6,8.4-8.1,12.7-12c-4.2-1.4-8.4-3.2-12.8-4l0-0.3C2423.9,667.7,2422.5,667.3,2421.1,666.8 M2389,667.3   c0.6,2.3,0.9,4.7,1.8,6.9c0.1,2.6,0.8,5,1.3,7.6c1.2,5.8,2.3,11.6,3.5,17.3c1.3-1.2,2.6-2.3,3.9-3.5l-0.1-0.1   c6.3-6,12.6-12.2,18.9-18.3C2408.5,673.9,2398.7,670.6,2389,667.3 M2345,696c-24.1,5.4-48.1,11-72.1,16.5   c-15.9,3.7-31.8,7.3-47.6,11c0.2,1.8,0.4,3.7,0.3,5.6c15.7,1,31.5,1.8,47.2,2.7c17.9,1,35.7,2,53.6,2.9c22.3,1.2,44.6,2.5,66.9,3.7   c0.7-17.6-0.5-35.4-4.1-52.7C2374.5,689.2,2359.7,692.4,2345,696 M1964.9,716c-0.9,0.2-0.1,1,0.4,1.3c7.4,5.2,14.9,10.3,22.3,15.5   c0.7,0.4,1.4,1.2,2.3,1c0.3-2.6,0.3-5.1,0.4-7.7c0.2-8.1,0.9-16.3,1.3-24.4C1982.6,706.4,1973.7,711.3,1964.9,716 M1952.5,710.6   c-2.9,1.4-5.7,3-8.5,4.5c3.6,3.1,7.8,5.6,11.7,8.3c1,0.7,2,1.5,3,2.2c0.3-6.3,0.8-12.6,0.9-18.9   C1957.2,708,1954.8,709.3,1952.5,710.6 M2397.4,724c-0.5,10.9-0.9,21.7-1.5,32.6c8.2-4.4,16.4-8.9,24.6-13.4c0.9-0.5,1.8-1,2.8-1.5   c-1.2-0.9-2.4-1.7-3.6-2.5l0-0.2C2412.1,734.1,2404.8,728.9,2397.4,724 M2225.6,732.6c-0.3,1.9-0.7,3.7-1,5.6   c16.1,5.4,32.2,11,48.3,16.5c17.8,6.1,35.6,12.2,53.4,18.3c19.4,6.6,38.7,13.3,58,19.8c5-16.5,8.1-33.7,8.7-51   c-22.4-1.3-44.9-2.4-67.3-3.7c-17.6-0.9-35.3-1.9-52.9-2.9C2257.1,734.3,2241.4,733.4,2225.6,732.6 M2427.7,751.3   c1-0.6,2.1-1.1,3.2-1.7c4.2-2.4,8.5-4.5,12.5-7c-2.7-2.1-5.8-3.7-8.3-6l-0.2,0.2c-2-1.6-4.2-3-6.3-4.5   C2428.2,738.7,2428,745,2427.7,751.3 M2223.6,741.3c-0.7,1.6-1.4,3.1-2.1,4.7c9.1,6.4,18.3,12.5,27.4,18.8   c8.1,5.5,16.1,11.2,24.3,16.5c9.3,6.7,19,13,28.5,19.6c3.5,2.3,6.8,4.9,10.5,7c6.8,5.1,14.1,9.7,21.1,14.6   c9.8,6.7,19.6,13.4,29.3,20.1c8.9-14.5,15.9-30.3,20.8-46.6c-19-6.5-37.9-13.1-57-19.4v-0.1c-17.8-6.1-35.6-12.2-53.4-18.3   C2256.5,752.5,2240.1,746.9,2223.6,741.3 M2219.2,748.8c-0.2,2.8,1,5.5,1.6,8.2c0.4,2.2,1.9,3.8,3.3,5.4   c16.1,18.9,32,37.8,48.1,56.6c6.2,7.5,12.6,14.8,18.9,22.3c12.5,14.8,25.1,29.5,37.6,44.3c5-4.6,9.6-9.6,14-14.8   c6.7-8,12.8-16.4,18.1-25.4c-18.4-12.7-37-25.2-55.3-37.9l-0.2,0c-10.6-7.4-21.3-14.7-32.1-21.9v-0.2   c-14.1-9.5-28.1-19.2-42.2-28.8C2227.1,754.1,2223.4,751.1,2219.2,748.8 M1969,780.8c9.7,3.4,19.5,6.7,29.2,10.1   c-2.2-10.6-4.4-21.3-6.4-32C1984.2,766.2,1976.6,773.5,1969,780.8 M2194.7,763.2c-1.6,4.5-1.4,9.4-1.7,14.1   c-2.6,54.8-5.3,109.5-7.8,164.3c16.5,0.7,33.2-0.5,49.3-4.4c-6.7-32.3-12.9-64.6-20.3-96.7c-5.8-25.8-11.7-51.5-17.4-77.3   C2196,763.2,2195.3,763.2,2194.7,763.2 M2223.5,766.7c3.7,14.1,7.5,28.1,11.2,42.2c1.2,5,4,9.4,6.1,14.1   c15.2,31.5,30.4,62.9,45.6,94.4c14.6-7.8,28-17.9,40-29.4c-11.8-14.1-23.8-28.1-35.7-42.1c-6-7.2-12.1-14.3-18.2-21.5   C2256.2,805.2,2239.8,786,2223.5,766.7 M1954.1,780.5c-1.7,1.6-3.3,3.2-4.8,4.8c4.2,1.7,8.5,3,12.8,4.5c1.3,0.5,2.6,0.9,3.9,1.4   c-1-6.2-2.4-12.4-3.6-18.5C1959.5,775.3,1956.9,777.9,1954.1,780.5 M2391.7,780c-1.2,3.3-2,6.7-3,10.1c-2,7-4.3,13.9-6.4,20.9   c10-2.3,20-4.5,29.9-7.1C2405.5,795.9,2398.7,787.9,2391.7,780 M2189.4,782.4c-13.8,51.3-27.8,102.5-41.7,153.8   c11.2,2.7,22.6,4.7,34.1,5.1C2184.4,888.4,2186.9,835.4,2189.4,782.4 M2158,791.3c-23.6,39.2-47.3,78.4-70.9,117.7   c8.4,5.8,17.3,10.9,26.6,15.1c11.7-34.4,23.4-68.8,35.1-103.2c3.5-10.5,7.3-20.9,10.6-31.5C2158.8,790,2158.4,790.6,2158,791.3    M2419.7,796.8c-1.8,5.9-3.6,11.8-5.3,17.8c1.4-0.3,2.8-0.6,4.2-1c4.4-1,8.8-1.9,13.2-3.1c-1.6-1.9-3.2-3.8-4.8-5.7   C2424.4,802.2,2422.4,799.2,2419.7,796.8 M2246.7,853.9c6.5,24.5,13,48.9,19.6,73.4c5.9-2.3,11.7-5.2,17.3-8.3   c-14.4-29.6-28.6-59.3-43-88.9C2242.3,838.1,2244.7,846,2246.7,853.9 M2366.1,843.5c-3.2,5.5-6.8,10.7-9.8,16.3   c10.2,0.4,20.4,1,30.6,1.4c-4.5-9.7-9.4-19.2-14-28.8C2370.3,835.8,2368.4,839.8,2366.1,843.5 M2386.3,871.9c1,0.1,2.1,0.2,3.2,0.2   c4.8,0.4,9.5,0.4,14.3,0.6c-0.3-0.9-0.6-1.9-0.9-2.8l-0.3,0c-2.1-4.7-4.5-9.2-6.7-13.8C2392.5,861.2,2389.6,866.7,2386.3,871.9    M2331.9,887.6c-4.4,4.4-9.1,8.4-13.5,12.9c9.8,3.2,19.5,6.7,29.2,9.8c-2.2-10.6-4.3-21.2-6.5-31.8   C2337.9,881.4,2335,884.6,2331.9,887.6 M2344.4,920.6c5.6,1.7,11.1,4.1,16.8,5.4c-1.2-6-2.5-12-3.7-18   C2353.1,912,2348.7,916.3,2344.4,920.6 M2286.5,921.4c-4.5,2.5-9.2,4.8-13.7,7.4c8.6,5.9,17.2,11.8,25.9,17.5   c0.4-10.9,1-21.7,1.4-32.6C2295.5,916.3,2291,919,2286.5,921.4 M2168,944.1c4.6,9.7,9.4,19.3,14,29c5.7-9,11.1-18.3,16.7-27.4   C2188.4,945.2,2178.2,944.8,2168,944.1 M2293.1,955.5c5,3.3,9.9,6.8,14.9,10c0.3-6.3,0.5-12.5,0.8-18.8   C2303.5,949.6,2298.2,952.4,2293.1,955.5z"
   id="path28"
   style="stroke:none;stroke-opacity:1;fill:#ffffff;fill-opacity:0" />
	<path
   class="st2"
   d="M2211,446.1c3.7,0.3,7.5,0,11.2,0.7c2.5,1.7,4.3,4.1,6.5,6.1c-0.9,8.7-1.5,17.5-2.6,26.2   c-2.7,0.4-5.3,0.8-7.9,1.2c-2.9-6.2-6-12.3-8.8-18.6c2.3-1.5,4.6-3.6,4.9-6.5C2215.2,451.8,2213.4,448.4,2211,446.1z"
   id="path30"
   style="stroke:none;stroke-opacity:1;fill:#ffffff;fill-opacity:0" />
	<path
   class="st2"
   d="M2119.6,453.9c1.4-1,2.7-2.7,4.7-2.7c3.4,0,6.8,0.5,10.3,0.4c-3.4,2.3-5.3,6.8-3.9,10.8   c0.9,3.1,3.9,4.9,6.8,5.9c-1.7,6.3-3.8,12.5-5.6,18.7c-5.1-1.5-10.2-2.7-15.4-4c-0.2-8.2-0.2-16.3-0.3-24.5   C2115.8,456.3,2118.2,455.2,2119.6,453.9z"
   id="path32"
   style="stroke:none;stroke-opacity:1;fill:#ffffff;fill-opacity:0" />
	<path
   class="st2"
   d="M2142.7,452.1c3.7,0.4,7.5,0,11.1,0.7c2.1,1.5,3.9,3.5,5.8,5.4c0.8,0.7,0.6,1.8,0.6,2.8   c-0.8,7.9-1.5,15.7-2.2,23.6c-5-5.9-10-11.8-15-17.7c1.6-2.1,3.3-4.3,3.2-7.1C2146.4,456.8,2144.6,454.2,2142.7,452.1z"
   id="path34"
   style="stroke:none;stroke-opacity:1;fill:#ffffff;fill-opacity:0" />
	<path
   class="st1"
   d="M2464.3,454.4c3.1-0.9,6.3-1.8,9.5-1.5c-2.1,2.1-5.2,2.2-7.7,3.4c-2.7,1.1-4.9,3.2-6.3,5.7   c1.3,0.2,2.6,0.4,3.9,0.6c-0.5,1.7-1.6,3-3,4c-0.2-0.3-0.7-0.8-1-1.1c-1.1,0.1-2.1,0.2-3.1,0.3c-0.1-1.1-0.1-2.1-0.1-3.1   c-4.2-1.2-8.4-0.1-12.5,0.4c1.1-2,3.6-2.7,5.8-2.7c2.6-0.1,5.4,0.6,7.9-0.7C2460.2,458.4,2461.4,455.1,2464.3,454.4z"
   id="path36"
   style="stroke:none;stroke-opacity:1;fill:#ffffff;fill-opacity:0" />
	<path
   class="st1"
   d="M2489.6,455.6c2-1,4.1-2.2,6.3-2.7c2.9-0.8,5.5,1.8,8.5,1.2c1.9-0.1,4.3-1.4,5.7,0.5c2.7-0.2,5.1-1.6,7.8-1.9   c2.1,0.1,4,1.3,6,2.2c3,1.6,6.2,3.1,8.3,5.9c-3.7-1.1-7.1-3.1-10.9-3.7c-3.1-0.5-6.1,0.3-9.1,1c-1.3,0.4-2.9,0.6-3.7,1.9   c-0.4,1.4-0.5,2.8-0.8,4.2c-1.3-0.1-2.6-0.1-3.8-0.2c0-1.7,0.1-3.3,0.2-5c-3.8-1.9-8.1-2.4-12.1-1.4c-3.7,0.8-7,2.5-10.6,3.5   C2483.7,458.7,2486.7,457.2,2489.6,455.6z"
   id="path38"
   style="stroke:none;stroke-opacity:1;fill:#ffffff;fill-opacity:0" />
	<path
   class="st2"
   d="M2253.9,460.9c1.6-1.1,2.9-3,5-2.8c3.4,0,6.8,0.5,10.2,0.5c-2.6,1.8-4.7,4.7-4.5,7.9c-0.2,2.8,1.6,5.2,3.3,7.2   c-5.7,5.4-11.3,10.9-17.1,16.3c0-8.2-0.1-16.4-0.2-24.6C2250.2,463.1,2252.5,462.2,2253.9,460.9z"
   id="path40"
   style="stroke:none;stroke-opacity:1;fill:#ffffff;fill-opacity:0" />
	<path
   class="st2"
   d="M2277.3,459c3.6,0.4,7.3,0,10.8,0.7c2.2,1.3,3.8,3.4,5.7,5.1c1.1,0.8,0.8,2.2,0.8,3.3   c-0.6,5.9-1.1,11.8-1.7,17.6c-0.2,2-0.2,4.1-0.8,6c-4.8,1.1-9.8,1.5-14.6,2.5c0,0.2-0.1,0.6-0.2,0.8c-1.3-6.7-2.7-13.3-3.9-20   c1.7-0.7,3.6-1.3,4.9-2.7c2-2.2,2.8-5.4,2-8.2C2279.9,462.2,2278.5,460.6,2277.3,459z"
   id="path42"
   style="stroke:none;stroke-opacity:1;fill:#ffffff;fill-opacity:0" />
	<path
   class="st2"
   d="M2196.9,479.4c3.1-5.3,6.3-10.5,9.6-15.6c2.8,5.5,5.4,11.1,8,16.7C2208.6,480.2,2202.8,479.9,2196.9,479.4z"
   id="path44"
   style="stroke:none;stroke-opacity:1;fill:#ffffff;fill-opacity:0" />
	<path
   class="st2"
   d="M2140.7,469.3c4,4.6,8,9.2,11.8,14c-5.7,1.3-11.5,2.8-17.3,3.8C2137.1,481.2,2138.8,475.2,2140.7,469.3z"
   id="path46"
   style="stroke:none;stroke-opacity:1;fill:#ffffff;fill-opacity:0" />
	<path
   class="st2"
   d="M2053.1,480.9c2-2,4.1-3.8,6.5-5.2c3.7-0.4,7.5,0.4,11.3,0.4c-1.8,1.5-3.5,3.3-4,5.7c-0.9,3.4,0.5,7.4,3.5,9.3   c1.7,1.2,3.8,1.2,5.8,1.5c-0.3,6.7-0.7,13.4-1,20.2c-7.5-1.4-14.8-3.6-22.2-5.4c-0.2-7-0.1-14.1-0.2-21.1   C2052.8,484.4,2052.3,482.5,2053.1,480.9z"
   id="path48"
   style="stroke:none;stroke-opacity:1;fill:#ffffff;fill-opacity:0" />
	<path
   class="st2"
   d="M2079.2,476.4c3,0.2,6.1,0.2,9.2,0.4c1.1,0,2.4,0.2,3.2,1.1c1.8,1.8,3.8,3.4,5.2,5.5c-0.2,5.4-1,10.7-1.4,16   c-4.8-3.3-9.6-6.6-14.3-9.9c0.9-2.1,2-4.3,1.6-6.7C2082.5,480.2,2080.9,478.1,2079.2,476.4z"
   id="path50"
   style="stroke:none;stroke-opacity:1;fill:#ffffff;fill-opacity:0" />
	<path
   class="st2"
   d="M2257.1,488.8c4.2-4.3,8.5-8.6,13.1-12.5c1.4,6,2.4,12.1,3.7,18.2C2268.2,492.8,2262.7,490.7,2257.1,488.8z"
   id="path52"
   style="stroke:none;stroke-opacity:1;fill:#ffffff;fill-opacity:0" />
	<path
   class="st1"
   d="M2462.8,485.3c3.4-0.8,6.8-1.8,10.3-2.5c-0.8,1.1-1.7,2-2.8,2.8c0.1,2.4,0.3,4.8,0.6,7.2   c2.2,0.3,4.4,0.4,6.5,1.3c-0.5,2.1-2.9,0.7-3.7,2.3c-2.3-0.5-4.8-0.9-6.9,0.1c-1.7,0.9-1.1,3-1.1,4.5c0.2,2.5-0.5,4.9-1.5,7.2   c-1.3-1.2-2.5-2.5-3.3-4c-1.3-2.7-1.4-5.8-2-8.7c-0.3-0.2-0.9-0.6-1.1-0.8c2-1.3,4.4-2.2,6.2-3.8   C2463.9,488.8,2463.1,487,2462.8,485.3z"
   id="path54"
   style="stroke:none;stroke-opacity:1;fill:#ffffff;fill-opacity:0" />
	<path
   class="st2"
   d="M2311.5,493.8c2.4-1.8,4.4-4,7-5.4c3.7-0.3,7.3,0.4,11,0.4c-1.6,1.7-3.4,3.5-3.8,5.9c-0.7,2.5,0.3,5.1,1.2,7.4   c-5,2.9-10.2,5.7-15.3,8.5C2311.6,504.9,2311.5,499.3,2311.5,493.8z"
   id="path56"
   style="stroke:none;stroke-opacity:1;fill:#ffffff;fill-opacity:0" />
	<path
   class="st2"
   d="M2337.7,489c3.9,0.4,7.8,0.4,11.7,0.6c2.1,2.1,4.2,4.1,6.4,6.2c-0.8,8.7-1.7,17.4-2.4,26.1   c-4.5,0.8-9,1.4-13.4,2.2c-2.9,0.5-5.9,1.2-8.9,1c0.2-6.7,0.5-13.4,0.8-20.1c1.8-0.1,3.8,0,5.4-0.9c2.9-1.6,4.7-5.1,4.4-8.5   C2341.4,493,2339.6,490.8,2337.7,489z"
   id="path58"
   style="stroke:none;stroke-opacity:1;fill:#ffffff;fill-opacity:0" />
	<path
   class="st2"
   d="M2078.6,511.2c0.2-6.2,0.4-12.4,1-18.6c5,3.3,9.9,6.7,14.8,10.2C2089.1,505.6,2084,508.6,2078.6,511.2z"
   id="path60"
   style="stroke:none;stroke-opacity:1;fill:#ffffff;fill-opacity:0" />
	<path
   class="st1"
   d="M2547.4,500.9c1.5-2.9,4.4-4.8,7.5-5.6c0.3,2.6-0.4,5-1.4,7.3c-1,2.2,0,4.6-0.4,6.9c-0.6,1.3-1.7,2.3-2.6,3.4   c1.7-0.6,3.3-1.2,5.1-1.7c0.2,1.4,0.6,2.9,0.2,4.4c-0.8,3.4-4.8,5.7-8.1,4.6c-2.4-0.8-5.3-0.9-7.3,0.9c-3.3,2.9-6.1,6.7-10.2,8.5   c0.5-4.6,2-9.5,5.2-12.9c2.1-1.5,4.9-1.1,7.2-2.3c-0.3-0.3-1-0.9-1.3-1.2c1.1-1.6,3.1-1.8,4.8-2.2   C2546.9,507.6,2546.3,504.1,2547.4,500.9z"
   id="path62"
   style="stroke:none;stroke-opacity:1;fill:#ffffff;fill-opacity:0" />
	<path
   class="st2"
   d="M2313.5,513.3c4.9-2.7,9.8-5.6,14.8-8.1c-0.1,6.2-0.3,12.5-0.7,18.7c-4.6-3-9.1-6.2-13.8-9.3   C2313.2,514.4,2312.7,513.6,2313.5,513.3z"
   id="path64"
   style="stroke:none;stroke-opacity:1;fill:#ffffff;fill-opacity:0" />
	<path
   class="st2"
   d="M2090.4,508.8c1.4-0.7,2.7-1.5,4.1-2.2c0,0.9,0,1.7,0,2.6c-0.9,0.2-1.8,0.4-2.6,0.6   C2091.4,509.5,2090.9,509.1,2090.4,508.8z"
   id="path66"
   style="stroke:none;stroke-opacity:1;fill:#ffffff;fill-opacity:0" />
	<path
   class="st2"
   d="M1997.5,521.6c2.3-1.8,4.3-4,6.9-5.4c3.8-0.4,7.5,0.4,11.3,0.4c-1.6,1.3-3.1,2.8-3.7,4.8   c-1.5,3.9,0.2,8.8,4,10.7c2.1,1.3,4.7,0.7,7,0.4c1.4,6.5,2.6,13,3.9,19.4c-3.5,0.4-7.1,1.7-10.7,0.7c-6.1-1.6-12.3-3.2-18.5-4.7   C1997.6,539.2,1997.5,530.4,1997.5,521.6z"
   id="path68"
   style="stroke:none;stroke-opacity:1;fill:#ffffff;fill-opacity:0" />
	<path
   class="st2"
   d="M2023.9,517c3.3,0.3,6.7,0.1,10,0.5c1.1,0,2.1,0.8,2.9,1.5c1.6,1.6,3.5,3,4.6,5c0.1,3-0.5,6-0.7,9   c-4.6-1.6-9.2-3.2-13.8-4.8c0.3-2.1,0.7-4.3,0.1-6.4C2026.6,519.9,2025.2,518.4,2023.9,517z"
   id="path70"
   style="stroke:none;stroke-opacity:1;fill:#ffffff;fill-opacity:0" />
	<path
   class="st2"
   d="M2311.9,517.3c1.4,0.9,2.7,1.9,4.1,3c-0.3,0.2-0.8,0.5-1.1,0.6c-1.1-0.3-2.1-0.6-3.2-0.9   C2311.7,519.1,2311.8,518.2,2311.9,517.3z"
   id="path72"
   style="stroke:none;stroke-opacity:1;fill:#ffffff;fill-opacity:0" />
	<path
   class="st2"
   d="M2026.3,531.5c5.1,1.5,10.1,3.4,15.2,5.2c-0.2,0-0.7,0-1,0c-0.1,1.1-0.2,2.2-0.2,3.3l0,0.1   c-3.5,3.2-6.9,6.5-10.4,9.7C2028.6,543.8,2027.4,537.7,2026.3,531.5z"
   id="path74"
   style="stroke:none;stroke-opacity:1;fill:#ffffff;fill-opacity:0" />
	<path
   class="st2"
   d="M2370.7,535.5c3.8-0.4,7.7,0.5,11.6,0.3c-1.6,1.3-3.2,2.7-3.9,4.7c-0.9,2.1-0.4,4.4-0.3,6.6   c-4.7,1.2-9.5,2.2-14.2,3.3c-0.1-3.2-0.1-6.3-0.1-9.4C2366.2,539.1,2368.2,537,2370.7,535.5z"
   id="path76"
   style="stroke:none;stroke-opacity:1;fill:#ffffff;fill-opacity:0" />
	<path
   class="st2"
   d="M2390.5,536.3c3.7,0.3,7.6-0.1,11.3,0.7c2.4,1.7,4.2,4,6.3,6c-0.9,8.7-1.6,17.4-2.5,26.1   c-6.1,1-12.3,1.9-18.4,3c-3.7,0.7-7.1-1.2-10.7-1.7c-0.1,0.2-0.3,0.6-0.4,0.8c2-6.5,3.9-13,5.8-19.6c2.2,0.3,4.5,0.9,6.6,0.1   c3.4-1.3,5.6-5,5.3-8.7C2393.8,540.4,2392.2,538.1,2390.5,536.3z"
   id="path78"
   style="stroke:none;stroke-opacity:1;fill:#ffffff;fill-opacity:0" />
	<path
   class="st4"
   d="M2040.4,536.7c0.3,0,0.8,0,1,0c0.4,0.1,1.3,0.4,1.8,0.6c-1,0.9-2,1.9-3,2.8   C2040.2,538.9,2040.3,537.8,2040.4,536.7z"
   id="path80"
   style="stroke:none;stroke-opacity:1;fill:#ffffff;fill-opacity:0" />
	<path
   class="st2"
   d="M2364,553.8c4.9-1.2,9.9-2.4,14.9-3.4c-1.7,6-3.6,12-5.3,18c-3.3-3.6-6.4-7.4-9.5-11   C2364,556.1,2364,555,2364,553.8z"
   id="path82"
   style="stroke:none;stroke-opacity:1;fill:#ffffff;fill-opacity:0" />
	<path
   class="st2"
   d="M1956.1,574.7c1.7-1.2,3.1-3.2,5.4-3c3.6,0,7.2,0.7,10.8,0.2c-2.7,1.4-4.9,4-5.1,7.1c-0.6,4.3,2.4,8.8,6.8,9.4   c2.3,0.5,4.4-0.7,6.5-1.7c3.4,6.5,6.3,13.1,9.6,19.7c-4.5,0.3-8.9,1.3-13.3,2c-1.7,0.3-3.4,0.2-5-0.2c-6.1-1.6-12.3-3.1-18.4-4.7   c-0.1-8.3-0.2-16.7-0.2-25C1953,576.7,1954.9,575.8,1956.1,574.7z"
   id="path84"
   style="stroke:none;stroke-opacity:1;fill:#ffffff;fill-opacity:0" />
	<path
   class="st2"
   d="M1979,572.4c3.8,0.7,7.8,0.2,11.6,0.9c2.2,1.3,3.9,3.4,5.8,5.2c1.1,1,0.5,2.5,0.6,3.8   c-4.6-0.2-9.2-0.5-13.8-0.7c-0.2-1.7-0.2-3.4-0.7-5C1981.9,574.9,1980.4,573.6,1979,572.4z"
   id="path86"
   style="stroke:none;stroke-opacity:1;fill:#ffffff;fill-opacity:0" />
	<path
   class="st2"
   d="M1983.5,584.9c4.4,0.2,8.8,0.6,13.2,0.8c-0.3,2.8-0.4,5.6-0.6,8.4c-1.4,2.6-3,5-4.5,7.5   c-1.1-1.1-1.6-2.7-2.3-4C1987.4,593.3,1985.2,589.2,1983.5,584.9z"
   id="path88"
   style="stroke:none;stroke-opacity:1;fill:#ffffff;fill-opacity:0" />
	<path
   class="st2"
   d="M2402.2,599.7c2.4-1.8,4.4-4,7-5.4c3.6-0.3,7.3,0.4,10.9,0.4c-2.5,2.3-4.2,5.4-4.2,8.9   c-6.4-0.2-12.8-0.3-19.2-0.7c1.8,0.1,3.6,0.1,5.4,0.1C2402.2,601.9,2402.2,600.8,2402.2,599.7z"
   id="path90"
   style="stroke:none;stroke-opacity:1;fill:#ffffff;fill-opacity:0" />
	<path
   class="st2"
   d="M2427.9,594.8c4,0.7,8.1,0.5,12.1,0.8c2.1,2,4.2,4.1,6.4,6.2c-0.7,8.7-1.7,17.5-2.4,26.2   c-6.3,1.1-12.6,2-18.9,3.1c-2.1,0.4-4.2-0.3-6.2-0.8c-3.8-1-7.5-1.9-11.3-2.9c3.7-6.1,7.3-12.3,11.1-18.3c1.8,1,3.7,2.2,5.8,2   c3.6-0.1,6.8-3,7.5-6.5C2433,600.9,2431.1,596.9,2427.9,594.8z"
   id="path92"
   style="stroke:none;stroke-opacity:1;fill:#ffffff;fill-opacity:0" />
	<path
   class="st2"
   d="M2402.2,606.6c4.5,0,9,0.2,13.4,0.6c-2.9,5.3-6.2,10.5-9.3,15.7c-1.4-2.6-2.8-5.3-4-8   C2402.2,612.1,2402.3,609.3,2402.2,606.6z"
   id="path94"
   style="stroke:none;stroke-opacity:1;fill:#ffffff;fill-opacity:0" />
	<path
   class="st2"
   d="M1924.4,642.3c3-2.1,5.4-6.1,9.6-5.5c4.1,0.1,8.3,0.7,12.4,0.4c-2.5,1.2-4.7,3.3-5.3,6   c-1.3,4.5,1.6,9.9,6.4,10.7c2.6,0.6,5-0.8,7.2-2.1c4.1,4.8,8.1,9.6,12.1,14.4c-0.3,1.5-0.6,3-0.9,4.5c-5.9,0.9-11.7,1.8-17.5,2.8   c-2,0.4-4.1,0.3-6-0.3c-5.9-1.6-11.9-3-17.8-4.6C1924.6,659.8,1924.4,651,1924.4,642.3z"
   id="path96"
   style="stroke:none;stroke-opacity:1;fill:#ffffff;fill-opacity:0" />
	<path
   class="st2"
   d="M1952.5,637.6c2.8,0.4,5.7,0.1,8.5,0.5c2.2,0.2,3.4,2.3,4.8,3.7c-2.9,0.6-5.7,1.6-8.7,1.8   C1955.8,641.5,1954.7,639,1952.5,637.6z"
   id="path98"
   style="stroke:none;stroke-opacity:1;fill:#ffffff;fill-opacity:0" />
	<path
   class="st2"
   d="M1956.5,647.4c4-0.9,8-2,12-2.6c-0.3,5.6-1.2,11.1-1.3,16.7c-3.2-4-6.6-7.8-9.9-11.7   C1956.7,649.1,1956.6,648.2,1956.5,647.4z"
   id="path100"
   style="stroke:none;stroke-opacity:1;fill:#ffffff;fill-opacity:0" />
	<path
   class="st2"
   d="M2432,662.1c4,0.1,8.1,0.6,12.1,0.4c-2.7,1.3-4.3,4-5.2,6.8c-3.9-1.2-7.7-2.6-11.5-3.8   C2429.1,664.5,2430.6,663.3,2432,662.1z"
   id="path102"
   style="stroke:none;stroke-opacity:1;fill:#ffffff;fill-opacity:0" />
	<path
   class="st2"
   d="M2451.5,662.9c3,0.3,6,0.3,9,0.5c1.2,0.1,2.7,0.1,3.6,1.1c1.7,1.7,3.6,3.2,5,5.1c0.4,1.5-0.1,3.1-0.1,4.6   c-0.7,7.2-1.3,14.4-2,21.6c-5.1,0.9-10.3,1.6-15.4,2.5c-2.4,0.4-4.8,1-7.1,0.4c-6.3-1.6-12.6-3.2-18.9-4.8   c-0.1-1.4-0.1-2.9-0.2-4.3c5-4.8,9.9-9.7,14.9-14.4c1.1,1,2.2,2.2,3.5,2.9c3.8,2.1,8.9,0.1,10.7-3.8   C2456.4,670.4,2454.8,665.6,2451.5,662.9z"
   id="path104"
   style="stroke:none;stroke-opacity:1;fill:#ffffff;fill-opacity:0" />
	<path
   class="st2"
   d="M2425.2,668.5c4.4,0.9,8.6,2.6,12.8,4c-4.3,4-8.1,8.4-12.7,12C2425.3,679.2,2425.1,673.9,2425.2,668.5z"
   id="path106"
   style="stroke:none;stroke-opacity:1;fill:#ffffff;fill-opacity:0" />
	<path
   class="st2"
   d="M1912.4,712.5c2.3-1.8,4.3-4,7-5.4c3.8-0.4,7.5,0.3,11.3,0.4c-2.6,2-4.6,5.1-4.2,8.5c0.2,4.6,4.6,8.7,9.2,7.8   c3.1-0.4,5.1-2.9,6.5-5.5c4.6,3,8.9,6.2,13.4,9.2c-0.8,4.4-0.9,8.9-1.4,13.3c-5.6,1-11.3,1.8-16.9,2.8c-2,0.4-4.2,0.6-6.2,0   c-6.1-1.6-12.3-3.2-18.4-4.7C1912.5,730.1,1912.5,721.3,1912.4,712.5z"
   id="path108"
   style="stroke:none;stroke-opacity:1;fill:#ffffff;fill-opacity:0" />
	<path
   class="st2"
   d="M1938.9,707.9c3.6,0.2,7.2,0.4,10.9,0.4c-2.5,1.3-5,2.7-7.5,4.1C1941.2,710.8,1940.1,709.3,1938.9,707.9z"
   id="path110"
   style="stroke:none;stroke-opacity:1;fill:#ffffff;fill-opacity:0" />
	<path
   class="st2"
   d="M1944,715.1c2.8-1.5,5.6-3.1,8.5-4.5c1.4,1.3,3.1,2.4,4,4.2c0.2,2.9-0.5,5.7-0.7,8.6   C1951.8,720.7,1947.6,718.2,1944,715.1z"
   id="path112"
   style="stroke:none;stroke-opacity:1;fill:#ffffff;fill-opacity:0" />
	<path
   class="st2"
   d="M2438.3,734.9c3.8-0.1,7.7,0.5,11.5,0.2c-2,1.1-3.4,2.8-4.6,4.6C2442.8,738.2,2440.5,736.5,2438.3,734.9z"
   id="path114"
   style="stroke:none;stroke-opacity:1;fill:#ffffff;fill-opacity:0" />
	<path
   class="st2"
   d="M2457,735.6c3.9,0.5,7.8,0,11.6,0.9c2.3,1.7,4.2,4,6.3,6c-0.8,8.7-1.6,17.4-2.4,26.1   c-5.1,0.9-10.3,1.6-15.4,2.5c-2.4,0.4-4.8,1-7.1,0.4c-6.3-1.6-12.6-3.2-19-4.8c-0.1-4.4-0.1-8.8-0.2-13.3c4.7-2.5,9.3-5.2,14.1-7.6   c1.3,2.6,3.3,5.4,6.5,5.8c4.6,0.9,9-3,9.4-7.5C2461.3,740.7,2459.5,737.7,2457,735.6z"
   id="path116"
   style="stroke:none;stroke-opacity:1;fill:#ffffff;fill-opacity:0" />
	<path
   class="st2"
   d="M2434.9,736.8l0.2-0.2c2.6,2.2,5.6,3.9,8.3,6c-4.1,2.6-8.4,4.7-12.5,7c0-3.1,0-6.2-0.1-9.3   C2432.2,739.2,2433.5,738,2434.9,736.8z"
   id="path118"
   style="stroke:none;stroke-opacity:1;fill:#ffffff;fill-opacity:0" />
	<path
   class="st2"
   d="M1918.1,785.2c2.3-1.8,4.3-4,6.9-5.4c3.8-0.4,7.5,0.3,11.3,0.4c-2.9,2.2-4.9,5.9-4.1,9.6   c0.7,4.6,5.8,8.1,10.4,6.4c3.3-1,5-4.3,5.7-7.5c4.8,1.6,9.5,3.3,14.3,4.9c-0.2,0.1-0.7,0.1-0.9,0.2c-0.8,6.6-1.2,13.1-1.9,19.7   c-5.6,1-11.2,1.7-16.8,2.8c-2.1,0.4-4.2,0.6-6.2,0c-6.1-1.6-12.3-3.2-18.4-4.7C1918.1,802.7,1918.1,793.9,1918.1,785.2z"
   id="path120"
   style="stroke:none;stroke-opacity:1;fill:#ffffff;fill-opacity:0" />
	<path
   class="st5"
   d="M1944.5,780.5c1.4,0.2,2.9,0.3,4.4,0.4c-0.8,0.7-1.5,1.4-2.3,2.1C1945.9,782.1,1945.2,781.3,1944.5,780.5z"
   id="path122"
   style="stroke:none;stroke-opacity:1;fill:#ffffff;fill-opacity:0" />
	<path
   class="st2"
   d="M1949.3,785.3c1.5-1.7,3.2-3.3,4.8-4.8c3.4,1.4,5.6,4.4,8.1,6.9c-0.1,0.8-0.2,1.6-0.2,2.4   C1957.8,788.3,1953.5,787,1949.3,785.3z"
   id="path124"
   style="stroke:none;stroke-opacity:1;fill:#ffffff;fill-opacity:0" />
	<path
   class="st2"
   d="M2419.5,810.1c2.2-2,4.6-4.1,7.4-5.3c1.6,1.9,3.2,3.8,4.8,5.7c-4.4,1.2-8.8,2.1-13.2,3.1   C2418.7,812.4,2418.4,811,2419.5,810.1z"
   id="path126"
   style="stroke:none;stroke-opacity:1;fill:#ffffff;fill-opacity:0" />
	<path
   class="st2"
   d="M2431.8,805.5c1.9,0.1,3.8,0.2,5.7,0.1c-1.1,0.8-2.2,1.7-3.2,2.6C2433.4,807.3,2432.6,806.4,2431.8,805.5z"
   id="path128"
   style="stroke:none;stroke-opacity:1;fill:#ffffff;fill-opacity:0" />
	<path
   class="st2"
   d="M2445.1,806.1c2.6,0.2,5.3,0.2,8,0.4c1.5,0.1,3.2,0,4.5,1.1c1.6,1.8,3.4,3.6,5.4,5c0,1.3-0.1,2.6-0.1,3.9   c-1.4,7.5-1.5,15.1-2.5,22.6c-6,0.9-11.9,1.9-17.9,2.9c-1.9,0.4-3.9,0.2-5.7-0.3c-6-1.6-12-3-17.9-4.6c-0.2-6.7,0.1-13.3-0.4-19.9   c4.6-0.9,9.1-2.4,13.8-3.1c0.9,1.8,1.1,3.9,2.5,5.4c2,2.2,5.3,3.3,8.2,2.3c3.7-1.2,6.1-5.2,5.7-9   C2448.5,810.1,2446.9,807.9,2445.1,806.1z"
   id="path130"
   style="stroke:none;stroke-opacity:1;fill:#ffffff;fill-opacity:0" />
	<path
   class="st3"
   d="M1971.5,844c2.4-4.1,4.9-8.2,7.4-12.2c0,2.1,0.1,4.3,0.1,6.4c-1.3,1.9-2.5,3.8-3.6,5.9   C1974.1,844,1972.8,844,1971.5,844z"
   id="path132"
   style="stroke:none;stroke-opacity:1;fill:#ffffff;fill-opacity:0" />
	<path
   class="st3"
   d="M1991.5,841.2c5.4,0.2,10.8,0.6,16.3,0.9c0,0.5,0,1.4-0.1,1.8c-5.4,0.2-10.8,0.2-16.1,0   C1991.5,843,1991.4,842.1,1991.5,841.2z"
   id="path134"
   style="stroke:none;stroke-opacity:1;fill:#ffffff;fill-opacity:0" />
	<path
   class="st2"
   d="M2393.5,871.9c1.2-0.5,2.2-1.5,3.5-2c1.9-0.3,3.8-0.1,5.7,0l0.3,0c0.3,0.9,0.6,1.9,0.9,2.8   c-4.8-0.2-9.6-0.2-14.3-0.6C2390.8,872.1,2392.1,872.2,2393.5,871.9z"
   id="path136"
   style="stroke:none;stroke-opacity:1;fill:#ffffff;fill-opacity:0" />
	<path
   class="st2"
   d="M2416.5,870.6c3.7,0.4,7.6-0.1,11.3,0.8c2.1,1.4,3.8,3.4,5.6,5.2c1.1,1,0.6,2.6,0.6,3.9   c-0.8,7.7-1.4,15.4-2.2,23.1c-5.6,1-11.3,1.8-16.8,2.8c-2.1,0.4-4.2,0.6-6.2,0c-6.1-1.6-12.3-3.2-18.5-4.7   c-0.3-8.7,0-17.5-0.4-26.2c4.7,0.2,9.4,0.5,14.1,0.7c0.1,2.5,0.1,5.2,1.8,7.3c2.1,3,6.3,4.2,9.6,2.6c3.3-1.5,5.1-5.3,4.7-8.9   C2419.8,874.5,2418.1,872.4,2416.5,870.6z"
   id="path138"
   style="stroke:none;stroke-opacity:1;fill:#ffffff;fill-opacity:0" />
	<path
   class="st2"
   d="M2351,926.3c3.1,1,6.2,2.1,9.3,3.1c-0.4,2.5-1.1,5.3,0.1,7.7c1.3,3.4,5.1,5.7,8.8,4.9c4-0.7,6.7-4.7,6.6-8.6   c0-2.8-1.7-5.1-3.3-7.2c3.6,0.4,7.4-0.2,11,0.7c2.4,1.6,4.2,4,6.4,6c-0.8,8.7-1.5,17.5-2.5,26.2c-5.5,0.9-11,1.7-16.5,2.7   c-2.2,0.4-4.5,0.7-6.7,0c-6.1-1.7-12.2-3.1-18.3-4.7c-0.2-6.8-0.1-13.6-0.2-20.5c0-2-0.3-4,0.3-5.9   C2347.5,929.1,2349.4,927.9,2351,926.3z"
   id="path140"
   style="stroke:none;stroke-opacity:1;fill:#ffffff;fill-opacity:0" />
	<path
   class="st6"
   d="M2096.4,965.9c1,0,2,0,3,0c-0.8,2.7-1.7,5.3-2.9,7.8C2096.4,971.1,2096.4,968.5,2096.4,965.9z"
   id="path142"
   style="stroke:none;stroke-opacity:1;fill:#ffffff;fill-opacity:0" />
	<path
   class="st2"
   d="M2295.7,967.3c2-1.8,4.9-0.9,7.4-1c1,0.7,2.1,1.4,3,2.2c-0.5,2.2-2,4.2-1.7,6.5c0.1,4.4,4.1,8.5,8.6,8   c4.5-0.3,7.8-4.8,7.4-9.1c-0.1-2.7-1.8-5-3.6-6.9c3.7,0.5,7.6-0.1,11.3,0.7c2.5,1.6,4.3,4,6.5,6.1c-0.3,5-1.3,10-1.1,15.1   c-10.1,4.1-20.2,8.3-30.3,12.4c-4.1-1.4-8.4-2.2-12.6-3.4c-0.1-8.8-0.2-17.5-0.2-26.3C2292.1,970.2,2293.9,968.7,2295.7,967.3z"
   id="path144"
   style="stroke:none;stroke-opacity:1;fill:#ffffff;fill-opacity:0" />
	<path
   class="st2"
   d="M2128.3,1007.8c1.7-6.6,3.5-13.2,5.4-19.7c1.1,1.2,3.1,2.2,3,4.1c-1.7,5.2-0.3,10.6-0.5,15.9l-0.4,0   C2133.2,1008,2130.8,1007.8,2128.3,1007.8 M2135.3,1007.3c0.3-1.8,0.3-3.6,0-5.3C2134.9,1003.7,2134.7,1005.5,2135.3,1007.3z"
   id="path146"
   style="stroke:none;stroke-opacity:1;fill:#ffffff;fill-opacity:0" />
	<path
   class="st2"
   d="M2158.6,1002c2.4-2.1,4.8-4.1,7.5-5.9c0,4,0.1,7.9-0.1,11.9c-5-0.1-9.9,0.3-14.9,0c2.5-0.1,5-0.1,7.5-0.2   C2158.6,1005.9,2158.6,1003.9,2158.6,1002z"
   id="path148"
   style="stroke:none;stroke-opacity:1;fill:#ffffff;fill-opacity:0" />
	<path
   class="st2"
   d="M2182.9,998.4c0.2-0.6,0.5-1.1,0.9-1.6c3.7,1.1,7.7,0.6,11.6,0.9c0,3.4,0.1,6.9-0.1,10.3c-3-0.1-6,0-8.9,0   c0.3-2,0.8-4.1-0.1-6C2185.5,1000.5,2184.1,999.5,2182.9,998.4z"
   id="path150"
   style="stroke:none;stroke-opacity:1;fill:#ffffff;fill-opacity:0" />
	<path
   class="st7"
   d="M2135.3,1007.3c-0.5-1.8-0.4-3.6,0-5.3C2135.6,1003.7,2135.6,1005.5,2135.3,1007.3z"
   id="path152"
   style="stroke:none;stroke-opacity:1;fill:#ffffff;fill-opacity:0" />
	<g
   id="g306"
   style="stroke:none;stroke-opacity:1;fill:#ffffff;fill-opacity:0">
		<path
   class="st8"
   d="M1759,947.4c0-60.2,0-120.4,0-180.6c1.6,0,3.2,0,4.8-0.1c7.6-13.2,15.2-26.3,22.8-39.4    c7.6,13.1,15.2,26.3,22.8,39.5c1.1,0,2.2,0,3.3,0c0.2,21,0.4,42.1,0.6,63.1c3.4,0,6.7,0,10.1,0c0,4.7,0,9.4,0,14.1    c5.2,0,10.3,0,15.5,0c0-4.7,0-9.4,0-14.2c4.1,0,8.2,0,12.4,0c0.1,4.7,0.1,9.4,0,14.1c5.2,0.1,10.4,0,15.6,0c0-4.7,0-9.4,0-14.2    c4.1,0,8.3,0,12.4,0c0,4.7,0,9.4,0,14.2c5.2,0,10.3,0,15.5,0c0.1-4.7-0.1-9.5,0.1-14.2c4.1,0.1,8.3,0,12.4,0c0,4.7,0,9.4,0,14.1    c5.2,0,10.4,0,15.6,0c0-4.7,0-9.4,0-14.1c4.1,0,8.3,0,12.5,0c0,4.7,0,9.4,0,14.1c5.2,0,10.4,0,15.6,0c0-4.7,0-9.4,0-14.1    c4.2,0,8.3-0.1,12.5,0.1c-0.1,4.7,0,9.4-0.1,14c2.7,0.1,5.4,0.1,8.1,0c2.4-4.1,4.9-8.2,7.4-12.2c0-0.4,0.1-1.1,0.2-1.5    c0.7-0.6,1.5-1.2,2.2-1.8c0.3,0.5,0.6,1,1,1.5c3,0,6-0.1,9,0c0.1,0.3,0.2,0.8,0.2,1c4.1-6.9,8.4-13.7,12.6-20.6    c0.9-1.1,0.2-2.5-0.2-3.7c-1.4-3.8-2.6-7.6-3.9-11.4c-10.6-3.7-21.3-7.4-32-11.1c0.7,4.1,1.6,8.1,2.3,12.1    c-2.6-0.8-5.2-1.8-7.8-2.7c-0.2,0.1-0.7,0.1-0.9,0.2c-0.8,6.6-1.2,13.1-1.9,19.7c-5.6,1-11.2,1.7-16.8,2.8c-2.1,0.4-4.2,0.6-6.2,0    c-6.1-1.6-12.3-3.2-18.4-4.7c-0.2-8.8-0.2-17.5-0.2-26.3c2.3-1.8,4.3-4,6.9-5.4c3.8-0.4,7.5,0.3,11.3,0.4c2.7-0.9,5.6-0.8,8.2,0.4    c1.4,0.2,2.9,0.3,4.4,0.4c5.2-4.9,10.3-9.9,15.5-14.8c0.9,4,1.6,8,2.5,12c8.4-7.9,16.7-15.8,24.9-23.8c-0.4-4.2-0.8-8.3-1-12.5    c-0.1-1.3,0-3-1.3-3.7c-9-6.3-18-12.6-27.1-18.8c-0.2,4.1-0.4,8.2-0.6,12.3c-2.1-1.4-4.1-2.8-6.1-4.2c-0.8,4.4-0.9,8.9-1.4,13.3    c-5.6,1-11.3,1.8-16.9,2.8c-2,0.4-4.2,0.6-6.2,0c-6.1-1.6-12.3-3.2-18.4-4.7c-0.2-8.8-0.2-17.5-0.3-26.3c2.3-1.8,4.3-4,7-5.4    c3.8-0.4,7.5,0.3,11.3,0.4c2.7-0.9,5.6-0.8,8.2,0.4c3.6,0.2,7.2,0.4,10.9,0.4c4.5-2.4,9-4.9,13.5-7.2c-0.2,4.1-0.4,8.2-0.6,12.4    c10-5.3,19.9-10.7,29.9-16.1c0.6-4.7,1.5-9.4,2.4-14c-7.5-8.9-15-17.8-22.5-26.6c-1.2,3.9-2.4,7.8-3.6,11.7    c-0.7-0.7-1.3-1.5-2-2.2c-0.3,1.5-0.6,3-0.9,4.5c-5.9,0.9-11.7,1.8-17.5,2.8c-2,0.4-4.1,0.3-6-0.3c-5.9-1.6-11.9-3-17.8-4.6    c0-8.8-0.2-17.5-0.2-26.3c3-2.1,5.4-6.1,9.6-5.5c4.1,0.1,8.3,0.7,12.4,0.4c2-0.3,4.1-0.1,6.1,0.4c2.8,0.4,5.7,0.1,8.5,0.5    c2.2,0.2,3.4,2.3,4.8,3.7c4-0.8,7.9-1.8,11.9-2.6c-1.2,3.9-2.4,7.8-3.6,11.7c10.9-2.4,21.8-4.9,32.7-7.4c1.9-4.4,3.8-8.9,5.9-13.2    c-5.1-10.7-10.2-21.4-15.4-32c-1.4,2-2.4,4.2-3.2,6.6c-1.3,1-2.3,2.3-3.2,3.6c-0.3-0.7-0.7-1.4-1-2c-4.5,0.3-8.9,1.3-13.3,2    c-1.7,0.3-3.4,0.2-5-0.2c-6.1-1.6-12.3-3.1-18.4-4.7c-0.1-8.3-0.2-16.7-0.2-25c-0.1-1.8,1.8-2.7,2.9-3.8c1.7-1.2,3.1-3.2,5.4-3    c3.6,0,7.2,0.7,10.8,0.2c2.2-0.6,4.6-0.4,6.7,0.5c3.8,0.7,7.8,0.2,11.6,0.9c2.2,1.3,3.9,3.4,5.8,5.2c1.1,1,0.5,2.5,0.6,3.8    c3.2,0.2,6.4,0.4,9.7,0.6c-1.9,3.6-4.2,6.9-6.2,10.5c11.2,0.7,22.4,1.3,33.6,1.9c3-3.9,6.1-7.8,9.3-11.6    c-1.3-6.9-2.7-13.9-4.1-20.8c-1-4.7-1.7-9.4-2.9-14c-3.1,2.3-5.9,5-8.7,7.7c-0.3-1.5-0.6-3.1-0.9-4.6c-3.5,0.4-7.1,1.7-10.7,0.7    c-6.1-1.6-12.3-3.2-18.5-4.7c-0.2-8.8-0.2-17.5-0.2-26.3c2.3-1.8,4.3-4,6.9-5.4c3.8-0.4,7.5,0.4,11.3,0.4c2.7-0.9,5.6-0.8,8.2,0.4    c3.3,0.3,6.7,0.1,10,0.5c1.1,0,2.1,0.8,2.9,1.5c1.6,1.6,3.5,3,4.6,5c0.1,3-0.5,6-0.7,9c2.8,1,5.7,2,8.6,3c-2.7,2.9-6,5.2-8.4,8.4    c9.2,3.4,18.6,6.4,27.8,9.8c1.3,0.4,2.6,1.1,4.1,1.1c1.8-1,3.2-2.4,4.9-3.5c-0.5-11.9-0.5-23.8-0.7-35.6c-0.7,0.3-1.4,0.7-2,1    c0-1.5,0.1-2.9,0.2-4.4c-7.5-1.4-14.8-3.6-22.2-5.4c-0.2-7-0.1-14.1-0.2-21.1c0.1-1.8-0.4-3.7,0.4-5.3c2-2,4.1-3.8,6.5-5.2    c3.7-0.4,7.5,0.4,11.3,0.4c1.5-0.4,3.1-0.7,4.7-0.7c-1.5-8.9-4.9-17.3-9.3-25.1c-5.8-10.6-12.9-20.5-17.7-31.6    c-9.1-0.8-18.3-0.8-27.4-1.5c-0.6-18.8,1.4-37.7-0.4-56.5c-1-11.2-5.9-21.4-10.3-31.6c-3.5-7.8-6.8-15.8-8.7-24.2    c-28-0.5-56.1-0.3-84.1-0.6c-2.3-57.6,0.8-115.2,0.1-172.8c0-10.7,0.4-21.4,0.5-32.1c-0.2-2.8,0-6.6-3-7.9c-2.6-0.9-5.6-1.4-8.3-1    c-2,3.1-2.3,7-2.9,10.5c-1.8,14.4-2.1,28.9-2.4,43.4c-0.6,44.1,0.7,88.2,1.3,132.3c0,9.3,0.4,18.7-0.1,28    c-18.7,0.1-37.4,0.3-56,0.5c-0.2,17-0.1,34-0.3,50.9c-6.6,1-13.2,1.6-19.7,2.7c-0.2,19.8-0.3,39.6-0.5,59.4    c-8.9,0.1-17.9-0.3-26.8,0c0,15.5,0.1,31-0.2,46.5c-9,0.2-18,0.3-27,0.7c-0.4,88.2-1,176.4-1.4,264.6c-0.1,7.5,0.1,15.1-0.2,22.6    c-9.5-0.2-19.1-0.6-28.6-0.6c0,65.1,0,130.3,0,195.4C1747.8,947.4,1753.4,947.4,1759,947.4z"
   id="path154"
   style="stroke:none;stroke-opacity:1;fill:#ffffff;fill-opacity:0" />
		<path
   class="st8"
   d="M922.9,458.5c-0.1-3,0-6.2,1.8-8.7c1.1,0.3,2.3,0.4,3.3,1c1.1,0.9,1.2,2.4,1.5,3.7c0.4,3.3,0.3,6.5,0.5,9.8    c0.1,7,1.1,13.9,1.1,21c-1.9,0.2-3.6-0.4-5.2-1.2c0.2,5,0.9,10.1-0.9,14.9c-1.5-2.1-2-4.6-2.1-7.1c-0.7,0-1.4,0.1-2,0.1    c-0.1,7.8,0.1,15.7,0.1,23.5c1.7,0,3.4,0,5.2,0c-0.2-2.4-0.7-4.8-0.9-7.3c-0.2-2.3,0.6-4.5,1.3-6.6c0.5-0.1,1.4-0.2,1.9-0.2    c1,1.6,1.8,3.3,2.3,5c2.4-0.6,4.7-0.1,6.8,1.2c-0.7,1.1-1.5,2.2-2.4,3.1c0.2-0.5,0.6-1.4,0.8-1.8c-1.7,0.5-3.7,0.5-5.2,1.6    c-1.5,1.5-1.1,3.8-1.2,5.8c2.5,1.4,6.1,3,6,6.4c-0.6,3.1-3.7,4.8-5.7,6.9c1,0.7,2,1.3,3.1,2c0.6-0.6,1.2-1.2,1.8-1.8    c0.9,0.6,1.9,1.1,2.6,2c-0.1,1.2-0.5,2.3-0.9,3.4c-1.9-0.7-3.8-1.1-5.8-0.7c-1.3,5.4-0.1,11.3-2.5,16.5c-1.8-3.1-1.4-6.8-1.9-10.2    c-1.7,0-3.4,0-5.1,0c0,39,0,78,0,117c3.3,0.4,6.5-0.6,9.3-2.3c0.1,2.4,0.3,4.7,0.4,7.1c3.3-1.2,6.8-4.3,10.4-2.3    c3.5,2.8,3.8,8.8,0.9,12.1c-1.8,1.2-4.2,1.4-6.3,1c-1.7-1.1-3.2-2.5-5.2-2.9c-0.1,11.8-0.1,23.6-0.2,35.4    c-1.1-0.2-2.2-0.5-3.3-0.7c0.5-0.3,0.9-0.7,1.4-1c-2.4-0.6-5-0.9-7.5-0.8c0,110.9,0,221.8,0,332.8c25,0,49.9,0,74.9,0    c0.1-102.4,0-204.9,0.1-307.3c0.1-3.9-0.4-7.9-0.2-11.8c0.1-3.5,2.3-6.5,4.4-9.2c3.3-4,6.8-8,9.4-12.5c2.3,0,4.7,0,7,0    c-0.1-6.1,0-12.2-0.1-18.3c0-3.2-0.4-6.4,0.7-9.5c0-4.7-0.1-9.4,0-14.2c-1.3-3.8-0.5-7.9-0.7-11.8c0.2-4.3-0.5-8.6,0.5-12.8    c-3.4-4.1-1.1-10-4.2-14.2c-4.9-7.7-8.7-16-12.2-24.4c-1.6-3.6-2.3-7.6-4-11.2c-1.4-3.1-4.6-4.8-6.7-7.3c0.5-0.9,1.1-1.9,1.6-2.8    c1.4,0.7,2.9,1.5,4.4,1.8c1.3-0.7,1.3-2.4,1.9-3.6c1.1,2.3,2,4.7,3.5,6.8c1.9-0.6,3.8-1.1,5.8-1.5c-1.5,2.5-4.4,4.7-3.7,7.9    c0.7,3.2,2.5,6,3.9,8.9c2.7,5.1,5.5,10.2,8.9,14.9c0.5-4.7,0.2-9.5,0.2-14.3c-0.2-100.3-0.5-200.5-0.7-300.8    c-0.1-3.1,0.5-6.4-0.7-9.4c-18.9-41.7-37.8-83.5-56.7-125.3c-4.5-9.8-8.7-19.7-13.4-29.3c-0.3,96.8-0.2,193.6-0.4,290.3    c-0.2,8.3,0.2,16.6-0.2,25c-7.8,0.2-15.5,0.4-23.3,0.7c0.1,5.8,0.1,11.6,0.2,17.4C921.5,458.5,922.2,458.5,922.9,458.5z"
   id="path156"
   style="stroke:none;stroke-opacity:1;fill:#ffffff;fill-opacity:0" />
		<path
   class="st8"
   d="M1097.2,1036.2c11,0,22,0,33,0c0-17.8,0-35.6,0-53.5c40.1-0.7,80.2-1.4,120.3-2.1    c0.1-134.6-0.1-269.3,0.1-403.9c5.3,0,10.6-0.1,15.8-0.2c0-4.7-0.2-9.4-0.2-14.1c7.4-0.1,14.7-0.1,22.1-0.1c0,4.8,0,9.6,0,14.4    c2.3,0.1,4.7,0.1,7,0.1c0.1-17.3,0.1-34.6,0.2-51.9c14.5,0,29.1,0,43.6,0c0.2-28.1,0-56.1,0-84.2c0-22.9,0-45.7-0.1-68.6    c-12-0.5-24-1-36-1.4c-0.3-16.3,0-32.6-0.1-48.8c0-24.7,0.1-49.5,0.1-74.2c-11.5,0.6-23.1,1.1-34.6,1.7    c0.2,41.1,0.3,82.2,0.4,123.2c-16.8-0.6-33.7-1.3-50.5-2c0.2-33.5,1.6-67,0.3-100.5c-0.2-5.7-0.6-11.4-1.4-17.1    c-0.3-1.7-0.5-3.5-1.3-5c-2.8-0.4-5.7-0.1-8.5-0.1c-20.2,0-40.3,0-60.5,0c-1,6.2-1,12.5-1.2,18.8c-0.4,27.6,1.2,55.2,0.7,82.8    c-0.3,6.6-0.3,13.2-1.7,19.7c-0.4,1.3-0.7,3.1-2.2,3.5c-1.4-0.3-2.7-0.8-4-1.3c-2.3,5.2-1.7,11-1.8,16.5    c-0.3,96.9-0.4,193.7-0.8,290.6c-0.1,58.4-0.2,116.7-0.4,175.1c-12.8,0.2-25.6,0.2-38.4,0.2c0-12.1,0.2-24.3-0.1-36.4    c-0.1,13.4-0.3,26.7-0.1,40.1C1096.9,916.9,1096.6,976.6,1097.2,1036.2z"
   id="path158"
   style="stroke:none;stroke-opacity:1;fill:#ffffff;fill-opacity:0" />
		<path
   class="st8"
   d="M1480.6,842.9c-0.6,4.3,0,8.7-0.3,13c3.7,0.1,7.5,0,11.2,0.1c0,6,0,11.9,0,17.9c-3.7,0.2-7.4-0.3-11.1,0.2    c-0.2,4.3-0.1,8.6,0,13c3.7-0.1,7.4,0,11.1,0c0,6,0,11.9,0,17.9c-3.7,0-7.5-0.1-11.2,0.1c0.1,4.4,0,8.8,0.1,13.2    c3.7,0,7.4,0,11.1,0c0,6,0.1,11.9,0,17.9c-3.7,0-7.4,0-11.1,0c0,4,0,8.1,0,12.1c3.7,0,7.4,0,11.2,0.1c-0.1,5.9,0,11.9,0,17.8    c-3.7,0-7.4,0-11.1,0c0,4.1-0.1,8.1,0,12.2c3.7,0,7.4,0,11.1,0c0,6,0,11.9,0,17.9c-3.7,0-7.5,0-11.2,0.1c0,4,0,8.1,0,12.1    c3.3,0.2,6.7-0.4,10.1,0.2c7.6,7.9,14.7,16.3,22.2,24.4c0-130.8,0-261.6,0-392.4c39.3-17,78.6-34,117.9-51    c-0.4,58.1-0.1,116.2-0.2,174.3c0,90.8,0,181.6,0,272.4c5,0,10,0,15.1,0c0-135.4,0-270.9,0-406.3c6.5,0,13,0,19.5,0    c0-2.5-0.1-5-0.1-7.4c-6.5,0-12.9,0-19.4,0c0-27.9-0.1-55.8,0.1-83.7c30.1,0.1,60.2,0,90.3,0c0.2-24.6,0-49.3,0.2-73.9    c-8.2-0.3-16.4-0.1-24.5-0.3c-1,0.1-1.6-0.5-1.4-1.5c-0.4-18-0.3-36.1-0.8-54.2c-8.9-0.6-17.8-1-26.6-1.6    c-0.2-10.4,0-20.9-0.2-31.3c-10.4-0.3-20.8-0.1-31.1-0.7c-0.5-9.5-0.9-19-1.5-28.6c-45.2,0-90.3-0.1-135.5-0.1    c-0.4,39.4-0.5,78.7-0.7,118.1c-7.4,0.1-14.8,0-22.2,0.1c0,2.9,0,5.8,0,8.8c-3.7,0-7.4,0-11.2,0c0,4.2,0,8.3,0,12.5    c3.7,0,7.4,0,11.1,0c0,5.9,0,11.9,0,17.9c-3.7,0.1-7.4,0-11.2,0c0,4.4,0,8.9,0,13.3c3.7,0,7.4,0,11.2,0.1c-0.1,5.9,0,11.9,0,17.8    c-3.7,0-7.4,0-11.1,0c0,4.1,0,8.2,0,12.3c3.7,0,7.4,0,11.1,0c0,5.9,0,11.9,0,17.8c-3.7,0.1-7.4,0-11.2,0.1c0,4.1,0,8.2,0,12.2    c3.7,0,7.4,0,11.2,0c0,5.9,0,11.9,0,17.8c-3.7,0-7.4,0-11.1,0c0,4.1,0,8.2,0,12.3c3.7,0,7.4,0,11.1,0c0,5.9,0,11.9,0,17.8    c-3.7,0.1-7.5,0-11.2,0.1c0,4.4,0,8.7,0,13.1c3.7,0,7.4,0,11.1,0c0,6,0.1,11.9,0,17.9c-3.7,0-7.4,0-11.1,0c0,4.4,0,8.7,0,13.1    c3.7,0,7.4,0,11.1,0c0,6,0,11.9,0,17.9c-3.7,0-7.4,0-11.1,0c0,4.4,0,8.7,0,13.1c3.7,0,7.4,0,11.1,0c0,6,0,11.9,0,17.9    c-3.7,0-7.4,0-11.1,0c0,4.4,0,8.7,0,13.1c3.7,0,7.4,0,11.1,0c0.1,6,0,11.9,0,17.9c-3.7,0-7.4,0-11.1,0c0,4.4,0,8.8,0,13.1    c3.7,0,7.5,0,11.2,0.1c-0.1,5.9,0,11.9,0,17.8c-3.7,0-7.4,0-11.1,0c0,4.4,0,8.7,0,13.1c3.7,0,7.4,0,11.2,0.1c0,5.9,0,11.9,0,17.9    c-3.7,0-7.4,0-11.1,0c0,4.4,0,8.7,0,13.1c3.7,0.1,7.4,0,11.1,0c0,6,0,11.9,0,17.9C1487.9,842.9,1484.2,842.6,1480.6,842.9z"
   id="path160"
   style="stroke:none;stroke-opacity:1;fill:#ffffff;fill-opacity:0" />
		<path
   class="st8"
   d="M327.2,753.9c-7.3-1.2-14.5-2.5-21.8-3.8c-0.2-25.6-0.5-51.2-0.8-76.8c-5.2-0.2-10.6,0.7-15.5-1.5    c-1.5-0.7-2.8-1.6-4.1-2.6c0.4-21.5,0.5-43,0.8-64.4c0-2.5,0.3-5,0-7.4c-0.7-0.8-1.6-1.4-2.5-2c0-41.6,0-83.2,0.1-124.8    c2.2,0,4.3-0.1,6.5-0.2c-0.1-3-0.1-6,0-9c42.9-0.4,85.8-1,128.7-1.5c10.6-0.3,21.2,0,31.9-0.5c-2-2.3-5.1-1.9-7.8-2.3    c6.6-0.3,13.3,0,19.8-1.3c4.7-1,9.4,0.2,13.8,1.9c2.4,1,5,1.6,7.7,1.5c31.4-0.6,62.7-1.2,94.1-1.8c7.3-0.2,14.7-0.1,22-0.6    c0.5-1.6,0-3.3-1.4-4.3c-4.9-3.9-10.3-7.5-13.6-13c-0.4-0.7-1.4-0.6-2-0.8c-9-1-17.8-3.1-26.7-5.2c-23.7-5.6-47.1-12.4-70.8-18.2    c-24.1-6-48.2-11.8-72-18.7c-28.2-7.9-57-13.9-85.2-21.7c-10.7-2.9-21.4-5.9-32.3-8.4c-12-3-23.9-6.1-35.9-9.2    c-2.2-0.5-4.4-1.4-6.6-1.5c-2.1,0.9-3.8,2.6-5.8,3.9c-33.7,23.9-67.3,48-101,71.9c-2.2-1.6-4.9-2.8-7.6-2c-2.3,0.5-3.7,2.8-4.1,5    c-0.7,3.8-0.3,7.7,0.3,11.5c1.5,0.2,3,0.5,4.5,0.7c0,1.1,0,2.3,0,3.4c-5.1,0.1-10.2,0.1-15.2,0.2c-1,0.1-2.9-0.3-2.6,1.4    c-0.1,5.9,0,11.9,0,17.8c12.5,0.2,25.1,0.1,37.6,0.2c0.9-6.3,0.8-12.7,0.1-18.9c-5.9-0.3-11.8-0.2-17.7-0.3c0-1.3,0-2.6,0-3.9    c8.9,0.5,17.7,1.9,26.5,2.9c20.5,2.7,41,5.5,61.4,8.8c4.3,0.7,8.7,1.4,12.9,2.4c0,3,0.1,6,0.2,9.1c2,0.3,3.9,0.7,5.9,1    c0.1,32.1,0.3,64.2,0.6,96.3c0.1,23,0.3,46.1,0.1,69.1c6,0.2,12,0.1,18,0.1c0,116.6,0,233.1,0,349.7    c23.2-22.3,46.4-44.7,69.6-67.1c0-35.5,0-71.1,0-106.6c-3.3,0-6.6-0.1-9.9-0.1C327.1,792.8,327.3,773.3,327.2,753.9z M390.3,458    c-29.9,0.6-59.7,0.6-89.6,1.1c-3.4,0.1-6.8,0.2-10.2-0.2c3.2-0.7,6.4-0.6,9.7-0.7c32.1-1.1,64.2-0.3,96.3-0.7    c11.8,0.1,23.7-0.1,35.5,0.2C418.1,458,404.2,457.9,390.3,458z M249,373.6c0.3,5.6,0.1,11.2,0.1,16.9c-0.1,16.7-0.1,33.5-0.2,50.2    c-1.7,0.4-3.7,0.4-5.1,1.6c-1,1.4-1.1,3.2-1.5,4.8c-20.1-3-40.2-5.9-60.3-8.9c-9.2-1.4-18.4-2.6-27.6-4.2    c5.9-4.6,12.3-8.6,18.4-13c17.5-13,35.6-25.2,53.4-37.8c8.3-6,16.6-12,24.9-18c0.1,1.3,0.3,2.7,0.1,4    C251,370.8,248.7,371.6,249,373.6z M261.5,458.7c-3.9,0-7.9,0.1-11.8-0.2c0-4-0.1-8-0.2-12c4.1,0,8.2,0.1,12.3,0.3    C261.7,450.8,261.6,454.7,261.5,458.7z M262.7,360.9c-0.4-0.2-1.1-0.6-1.5-0.8c1.5,0.1,3.1,0.4,4.6,0.8    c27.9,7.5,55.9,14.2,83.7,21.9c16.2,4.3,32.6,7.7,48.8,11.9c10.9,2.7,21.5,6.1,32.3,9c13.9,3.7,27.9,6.9,41.9,10.3    c12.2,2.9,24.4,6.4,36.6,9.5c12.4,3.2,24.8,6.1,37.1,9.3c7.2,1.9,14.5,3.6,21.6,6.1c-4.5,0.7-9.1,0.4-13.6,0.7    c-17.5,0.3-34.9,0.3-52.4,0.4c-12.4,0.1-24.8-0.1-37.1,0.3c-10.9,0.2-21.8,0.6-32.7,0.3c-2.6-0.1-5.3,0-7.7-1.2    C370.4,413.2,316.5,387.1,262.7,360.9z M270.6,458.6c0-4,0.3-8.1,0.3-12.1c3.9-0.1,7.7,0.3,11.6,0.5c0,3.8,0,7.7,0.1,11.6    C278.6,458.7,274.6,458.7,270.6,458.6z M283.1,438.4c1-10.7,0.1-21.5,0.2-32.2c0.2-11.1,0-22.2-0.1-33.2    c5.5,2.2,10.6,5.2,15.9,7.8c37.5,18.3,75.1,36.5,112.6,54.7c3.2,1.7,6.6,3,9.7,4.9c-32.1,0.3-64.3,1-96.4,1.1    c-9.2,0.1-18.4,0.1-27.7,0.2c-4.5,0.1-9.3,0.6-13.5-1.2C282.7,440.4,283.2,439.1,283.1,438.4z"
   id="path162"
   style="stroke:none;stroke-opacity:1;fill:#ffffff;fill-opacity:0" />
		<path
   class="st8"
   d="M1392.7,524.8c0,118.2,0,236.3,0,354.5c0,52.3-0.1,104.6,0.1,156.9c4.6-0.1,9.2,0,13.8,0c0-9.3,0-18.6,0-27.9    c4,0,8,0,12,0c0-4.1,0-8.1-0.1-12.2c-4,0.1-8,0-12,0c0-6,0-11.9,0-17.9c4,0,8,0,12,0c0-4.1,0-8.1,0-12.2c-4,0-8,0-12,0    c0.1-5.9-0.1-11.8,0.1-17.6c3.9-0.6,8-0.1,11.9-0.3c0-4,0-8.1,0-12.1c-4,0-8,0-12,0c-0.1-6,0-11.9,0-17.9c4,0,8,0,12,0    c0-4.4,0-8.8,0-13.2c-4,0-8,0-12,0c0-6,0-11.9,0-17.9c4,0,8,0,12,0c0.1-4.4,0-8.8,0-13.2c-4,0-8,0-12,0c0-6,0-11.9,0-17.9    c4,0,8,0,12,0c0-4.4,0-8.8,0-13.1c-4,0-8,0-12,0c0-5.9,0-11.9,0-17.8c4-0.1,8,0,12-0.1c0-4.4,0-8.7,0-13.1c-4,0-8,0-12,0    c0-5.9,0-11.9,0-17.8c4-0.1,8,0,12-0.1c0-4.4,0-8.7,0-13.1c-4,0-8,0-12,0c0-5.9,0-11.9,0-17.8c4-0.1,8,0,12.1-0.1    c0-4.4,0-8.7,0-13.1c-4,0-8,0-12,0c0-6-0.1-11.9,0-17.9c4,0,8,0,12,0c0-4.4,0-8.7,0-13.1c-4,0-8,0-12,0c0-6,0-11.9,0-17.9    c4,0,8,0,12,0c0-4.4,0-8.8,0-13.1c-4,0-8,0-12,0c0-6,0-11.9,0-17.9c4,0,8,0,12,0c0-4.4,0-8.7,0-13.1c-4,0-8,0-12,0    c-0.1-6,0-11.9,0-17.9c4,0,8,0,12,0c0-4.4,0-8.7,0-13.1c-4,0-8,0-12,0c0-5.9,0-11.9,0-17.8c4-0.2,8-0.1,12.1-0.1    c0-4.1,0-8.2,0-12.3c-4,0-8,0-12,0c0-5.9,0-11.9,0-17.8c4-0.1,8,0,12.1-0.1c0-4.1,0-8.2,0-12.2c-4,0-8,0-12,0c0-6,0-11.9,0-17.8    c4,0,8,0,12,0c0-4.1,0-8.2,0-12.3c-4,0-8,0-12,0c0-6-0.1-11.9,0.1-17.9c4,0.1,8,0,12,0c0-4.4,0-8.9,0-13.3c-4,0-8,0-12-0.1    c0.1-5.9,0-11.9,0-17.8c4,0,8,0,12,0c0-4.2,0-8.3,0-12.5c-4,0-8,0-12,0c0-2.9,0-5.7,0-8.6c-16.4,0.2-32.8,0-49.2,0.3    c0,19.8,0.1,39.7-0.1,59.5C1369.1,524.8,1380.9,524.8,1392.7,524.8z"
   id="path164"
   style="stroke:none;stroke-opacity:1;fill:#ffffff;fill-opacity:0" />
		<path
   class="st8"
   d="M2068.9,557.7c-9.7-3.5-19.4-6.8-29.1-10.2c2.1,10.7,4.2,21.3,6.3,32c4.1-3.7,8-7.6,12-11.5    C2061.6,564.6,2065.4,561.3,2068.9,557.7z"
   id="path166"
   style="stroke:none;stroke-opacity:1;fill:#ffffff;fill-opacity:0" />
		<path
   class="st8"
   d="M760.1,924.5c31.6-0.5,63.1-0.9,94.7-1.4c0-50.9,0-101.7,0-152.6c-3.8,0.1-7.6,0.6-11.3,0.3    c-0.7-6.5,0.1-13.1,0.1-19.7c-1.4-0.7-2.8-1.3-4.2-1.9c-0.4-0.9-0.8-1.8-1.1-2.7c1.8-1,3.5-2.1,5.3-3.2c-0.2-4.2,0-8.4,0.1-12.5    c-2.1,0.3-3.7,1.7-5.2,3.1c-2.1,0.5-4.2-0.4-6.3-0.8c-0.7-1.5-1.8-3.1-1.8-4.8c0.3-2.2,1.4-4.2,2.2-6.3c2,0,4.1-0.3,6,0.2    c1.4,0.7,2.6,1.9,3.9,2.8c0.4-1.5,0.8-3,1.3-4.4c3.6,1,7.3,1.3,11.1,1.2c-0.1-5-0.1-10.1-0.2-15.1c-2,3.7-4.9,7-8.8,8.7    c-8.6,4.2-20,3.5-27-3.4c-3.1-3-4.8-7.1-5.5-11.3c0,0.5,0.1,1.5,0.2,2c-5-0.1-10-0.2-15-0.4c-0.9-12.1,0.4-24.3-0.3-36.4    c-0.4-6-0.7-12.3-4.2-17.5c-3.7-5.7-3.8-12.7-3.9-19.2c0-21.2,2.8-42.4,1.5-63.7c-0.6-6-1.1-12.4-4.3-17.7    c-3.4,3.5-3.9,8.6-4.7,13.2c-1.5,11.8-1.6,23.7-1.5,35.5c0.1,17.1,1.1,34.2,1.7,51.3c-7.6,0.2-15.2,0.2-22.8,0.4    C760.1,740.3,760.1,832.4,760.1,924.5z"
   id="path168"
   style="stroke:none;stroke-opacity:1;fill:#ffffff;fill-opacity:0" />
		<path
   class="st8"
   d="M2173.4,702.6c1.4-1,2.7-2,4-3c-12.3-25.5-24.6-51-36.9-76.5c-9.5-19.8-19.2-39.5-28.6-59.4l-0.1,0    c-3.5,0.9-7.1,0.3-10.6,0.4c-7.6-0.1-15.2,0-22.8-0.3c-0.2-2.7-0.3-5.5-0.4-8.2c-5.9,4.5-11.6,9.3-17,14.5    C2098.4,614.3,2136,658.4,2173.4,702.6z"
   id="path170"
   style="stroke:none;stroke-opacity:1;fill:#ffffff;fill-opacity:0" />
		<path
   class="st8"
   d="M2193.6,695.1c2.1-43.4,4.2-86.9,6.3-130.3c-8.9,0-17.7-0.1-26.6-0.1c-3.9-0.1-7.8,0.2-11.7-0.4    c9,43.7,17.9,87.4,26.8,131.1C2190.1,695.2,2191.8,695.1,2193.6,695.1z"
   id="path172"
   style="stroke:none;stroke-opacity:1;fill:#ffffff;fill-opacity:0" />
		<path
   class="st8"
   d="M2205,697.2c1.5,0.7,3,1.5,4.5,2.3c10.3-17,20.5-34.1,30.8-51.1c11.2-18.4,22.1-36.9,33.4-55.2l0-0.3    c-0.8-9.1-0.3-18.3-1-27.4c-9.2-0.1-18.3,0-27.5-0.2c0-0.3,0-0.9,0-1.3C2231.8,608.3,2218.4,652.8,2205,697.2z"
   id="path174"
   style="stroke:none;stroke-opacity:1;fill:#ffffff;fill-opacity:0" />
		<path
   class="st8"
   d="M2185.2,696.2c-8.9-43.9-17.9-87.8-26.9-131.7c-14.1-0.1-28.3-0.3-42.4-0.3c21.5,44.6,43,89.2,64.7,133.7    C2182,697.4,2183.6,696.8,2185.2,696.2z"
   id="path176"
   style="stroke:none;stroke-opacity:1;fill:#ffffff;fill-opacity:0" />
		<path
   class="st8"
   d="M2201.8,696.2c13.2-43.7,26.4-87.4,39.6-131c-12.7-0.1-25.5-0.1-38.2-0.4c-2.1,43.5-4.2,86.9-6.2,130.4    C2198.6,695.5,2200.2,695.8,2201.8,696.2z"
   id="path178"
   style="stroke:none;stroke-opacity:1;fill:#ffffff;fill-opacity:0" />
		<path
   class="st8"
   d="M2167.6,709.2c1.2-1.4,2.3-2.8,3.5-4.3c-37.6-44.1-75-88.3-112.5-132.5c-12.4,12-23.2,25.5-32.1,40.2    C2073.5,644.8,2120.5,677,2167.6,709.2z"
   id="path180"
   style="stroke:none;stroke-opacity:1;fill:#ffffff;fill-opacity:0" />
		<path
   class="st8"
   d="M1996.7,585.7c-0.3,2.8-0.4,5.6-0.6,8.4c1.8-2.7,3.4-5.4,5-8.2C1999.6,585.8,1998.1,585.7,1996.7,585.7z"
   id="path182"
   style="stroke:none;stroke-opacity:1;fill:#ffffff;fill-opacity:0" />
		<path
   class="st8"
   d="M848.8,605.9c2,0,4,0,6,0c0.1-6.3-0.2-12.7,0.2-19c-1.4,0-2.7,0.1-4.1,0.2c-0.2,2-0.6,4-1.8,5.7    c-2-1-1.4-3.8-1.6-5.7c-0.7,0.1-1.4,0.1-2,0.2c-0.2,5.1,0,10.1-0.2,15.2c1.1-0.3,2.2-0.5,3.3-0.8    C848.7,603.1,848.7,604.5,848.8,605.9z"
   id="path184"
   style="stroke:none;stroke-opacity:1;fill:#ffffff;fill-opacity:0" />
		<path
   class="st8"
   d="M2014.3,625.7c5.5-9.1,11.2-18.2,16.6-27.4c-10.2-0.6-20.4-1.1-30.6-1.7    C2005,606.4,2009.6,616.1,2014.3,625.7z"
   id="path186"
   style="stroke:none;stroke-opacity:1;fill:#ffffff;fill-opacity:0" />
		<path
   class="st8"
   d="M2273.5,599.9c-9.2,14.9-18.1,29.9-27.2,44.9c-11.3,18.9-22.8,37.7-34.1,56.6c1.3,1.1,2.6,2.3,3.9,3.5    c19.2-18.3,38.3-36.8,57.4-55.2C2273.6,633.2,2273.7,616.5,2273.5,599.9z"
   id="path188"
   style="stroke:none;stroke-opacity:1;fill:#ffffff;fill-opacity:0" />
		<path
   class="st8"
   d="M2163.6,717.2c0.7-1.7,1.5-3.4,2.3-5.1c-47.1-32.2-94.1-64.4-141.2-96.5c-8.9,14.7-15.9,30.6-20.9,47    C2057,680.8,2110.3,699.1,2163.6,717.2z"
   id="path190"
   style="stroke:none;stroke-opacity:1;fill:#ffffff;fill-opacity:0" />
		<path
   class="st8"
   d="M1723.1,630.6c4.2,0,8.4,0,12.7,0c0-2.8,0-5.6,0.2-8.4c2.1,0,4.1,0,6.2-0.1c-6.4-0.1-12.8,0-19.2,0    C1723,625,1723.1,627.8,1723.1,630.6z"
   id="path192"
   style="stroke:none;stroke-opacity:1;fill:#ffffff;fill-opacity:0" />
		<path
   class="st8"
   d="M1967.1,661.5c1-1.7,1.4-3.6,2-5.4c1.3-4.1,2.6-8.2,3.8-12.4c-1.5,0.3-2.9,0.6-4.4,1l0,0.2    C1968.2,650.4,1967.3,655.9,1967.1,661.5z"
   id="path194"
   style="stroke:none;stroke-opacity:1;fill:#ffffff;fill-opacity:0" />
		<path
   class="st8"
   d="M1995.1,678.2c0.8-0.5,0.8-1.7,1.1-2.4c2.7-9.5,5.7-18.9,8.6-28.3c-10,2.2-20,4.5-29.9,6.7    C1981.4,662.4,1988.3,670.3,1995.1,678.2z"
   id="path196"
   style="stroke:none;stroke-opacity:1;fill:#ffffff;fill-opacity:0" />
		<path
   class="st8"
   d="M2273.4,654.5c-18.3,17.6-36.7,35.1-54.8,52.9c0.5,1.7,2,3,2.8,4.6c17.3-9.4,34.6-19,51.9-28.3l0-0.1    C2273.2,673.9,2273.5,664.2,2273.4,654.5z"
   id="path198"
   style="stroke:none;stroke-opacity:1;fill:#ffffff;fill-opacity:0" />
		<path
   class="st8"
   d="M2388.5,682.5c-1.6-9.2-4.2-18.2-7.3-27c-6.3,6.8-12.2,13.9-18.3,20.8c-4.2,4.9-8.5,9.7-12.5,14.7    c1-0.1,2.1-0.3,3.1-0.5C2365.2,687.9,2376.8,685.2,2388.5,682.5z"
   id="path200"
   style="stroke:none;stroke-opacity:1;fill:#ffffff;fill-opacity:0" />
		<path
   class="st8"
   d="M2161.6,725.8c0.3-1.8,0.6-3.5,1-5.3c-53.3-18.2-106.5-36.5-159.8-54.7c-4.9,16.5-7.9,33.6-8.7,50.8    C2050,719.6,2105.8,722.6,2161.6,725.8z"
   id="path202"
   style="stroke:none;stroke-opacity:1;fill:#ffffff;fill-opacity:0" />
		<path
   class="st8"
   d="M2395.5,699.2c1.3-1.2,2.6-2.3,3.9-3.5l-0.1-0.1c-3.5-6.8-5.6-14.2-8.7-21.2c0.1,2.6,0.8,5,1.3,7.6    C2393.2,687.6,2394.3,693.4,2395.5,699.2z"
   id="path204"
   style="stroke:none;stroke-opacity:1;fill:#ffffff;fill-opacity:0" />
		<path
   class="st8"
   d="M2389.2,685.7c-14.7,3.5-29.5,6.7-44.2,10.3l0.9,0c-2.8,4.1-6.1,7.9-8.8,12c-5.6,7.9-9.7,17-10.7,26.7    c22.3,1.2,44.6,2.5,66.9,3.7C2394,720.8,2392.9,703,2389.2,685.7z"
   id="path206"
   style="stroke:none;stroke-opacity:1;fill:#ffffff;fill-opacity:0" />
		<path
   class="st8"
   d="M2273.1,687.6c-16.9,8.9-33.5,18.3-50.3,27.4c0.7,1.7,0.9,3.8,2.1,5.2c16.4-3.6,32.8-7.5,49.2-11.3    c-0.3,0-0.8,0-1.1-0.1C2272.9,701.7,2273.2,694.7,2273.1,687.6z"
   id="path208"
   style="stroke:none;stroke-opacity:1;fill:#ffffff;fill-opacity:0" />
		<path
   class="st8"
   d="M2395.5,704.1c0.6,5.1,0.9,10.2,1.2,15.4c6.6,4.5,13.2,9.1,19.9,13.6c-1.7-5.2-4.3-10-6.6-15    c-3.1-6.4-6.2-12.8-9.3-19.1C2398.9,700.6,2397.2,702.3,2395.5,704.1z"
   id="path210"
   style="stroke:none;stroke-opacity:1;fill:#ffffff;fill-opacity:0" />
		<path
   class="st8"
   d="M1965.2,717.3c7.4,5.2,14.9,10.3,22.3,15.5c0.7,0.4,1.4,1.2,2.3,1c0.3-2.6,0.3-5.1,0.4-7.7    c0.2-8.1,0.9-16.3,1.3-24.4c-8.9,4.7-17.7,9.5-26.6,14.3C1963.9,716.2,1964.8,717.1,1965.2,717.3z"
   id="path212"
   style="stroke:none;stroke-opacity:1;fill:#ffffff;fill-opacity:0" />
		<path
   class="st8"
   d="M592.1,703.1c-0.1,33.6-0.2,67.3-0.2,100.9c-9.6,0.2-19.3,0.3-28.9,0.4c0,11.8-0.1,23.6,0,35.3    c14.9,0,29.9,0,44.9,0c0.1-45.6,0-91.1,0-136.7C602.6,703,597.4,702.9,592.1,703.1z"
   id="path214"
   style="stroke:none;stroke-opacity:1;fill:#ffffff;fill-opacity:0" />
		<path
   class="st8"
   d="M1958.7,725.6c0.3-6.3,0.8-12.6,0.9-18.9c-2.4,1.3-4.8,2.5-7.1,3.9c1.4,1.3,3.1,2.4,4,4.2    c0.2,2.9-0.5,5.7-0.7,8.6C1956.7,724.2,1957.7,724.9,1958.7,725.6z"
   id="path216"
   style="stroke:none;stroke-opacity:1;fill:#ffffff;fill-opacity:0" />
		<path
   class="st8"
   d="M2225.3,723.6c0.2,1.8,0.4,3.7,0.3,5.6c15.7,1,31.5,1.8,47.2,2.7c0-6.4,0.1-12.8,0.1-19.2    C2257,716.2,2241.1,719.8,2225.3,723.6z"
   id="path218"
   style="stroke:none;stroke-opacity:1;fill:#ffffff;fill-opacity:0" />
		<path
   class="st8"
   d="M2030.7,764.8c2.5-3.5,4.3-7.4,6.5-11c5.1-8.9,10.3-17.7,15.4-26.6c5.6,9.6,11.1,19.2,16.7,28.9    c30.9-7.1,61.8-14.3,92.7-21.3c-0.2-1.9-0.4-3.8-0.5-5.7c-55.8-3-111.6-6.1-167.4-9.2c-1,17.6,0.5,35.4,4,52.6    c8.4-1.9,16.8-3.9,25.2-5.8C2025.7,766.1,2028.3,766,2030.7,764.8z"
   id="path220"
   style="stroke:none;stroke-opacity:1;fill:#ffffff;fill-opacity:0" />
		<path
   class="st8"
   d="M2395.9,756.5c8.2-4.4,16.4-8.9,24.6-13.4c-0.3-1.3-0.6-2.6-0.8-3.9l0-0.2c-7.5-4.9-14.8-10.1-22.2-15.1    C2396.9,734.8,2396.5,745.7,2395.9,756.5z"
   id="path222"
   style="stroke:none;stroke-opacity:1;fill:#ffffff;fill-opacity:0" />
		<path
   class="st8"
   d="M2599.6,913c0.3-61.8,0.6-123.6,0.7-185.4c-27.7-0.1-55.3,0.2-83,0.2c-8.2,0-16.4-0.1-24.6,0.1    c-3.2,13-3,26.6-2.8,39.9c0.3,14.1,1.2,28.1,1.6,42.2c0.2,13.2,0.7,26.6-2.3,39.6c-8.5,0-17.1-0.3-25.6-0.5    c-0.4-10.9,0-21.8-0.7-32.6c-1.4,7.5-1.5,15.1-2.5,22.6c-6,0.9-11.9,1.9-17.9,2.9c-1.9,0.4-3.9,0.2-5.7-0.3c-6-1.6-12-3-17.9-4.6    c-0.2-6.7,0.1-13.3-0.4-19.9c-3,0.7-6,1.4-8.9,2.1c1.1-4,2.3-7.9,3.5-11.8c-11,2.6-22,5-32.9,7.7c-1.7,4.3-3.7,8.6-5.7,12.8    c5.1,10.5,10.2,21,15.4,31.5c2.2-3.3,4.2-6.9,6.3-10.3c3.8,7.2,7.1,14.7,10.9,21.9c1.4-0.6,2.9-1.3,4.5-1.4c1.7-0.1,3.3,0.6,5,1.1    c3.7,0.4,7.6-0.1,11.3,0.8c2.1,1.4,3.8,3.4,5.6,5.2c1.1,1,0.6,2.6,0.6,3.9c-0.8,7.7-1.4,15.4-2.2,23.1c-5.6,1-11.3,1.8-16.8,2.8    c-2,0.4-4.2,0.6-6.2,0c-6.1-1.6-12.3-3.2-18.5-4.7c-0.3-8.7,0-17.5-0.4-26.2c-3.1-0.1-6.2-0.3-9.3-0.4c2-3.5,4.3-6.9,6.2-10.5    c-9-0.4-18.1-0.8-27.1-1.3c-2.2-0.1-4.4-0.5-6.5-0.1c-3.2,3.8-6.1,7.9-9.4,11.6c2.4,11.6,4.7,23.2,7.1,34.7c3-2.7,5.7-5.6,8.7-8.3    c1.7,8.1,3.3,16.2,5,24.3c2.7-0.7,5.3-0.1,7.9,0.8c3.6,0.4,7.4-0.2,11,0.7c2.4,1.6,4.2,4,6.4,6c-0.8,8.7-1.5,17.5-2.5,26.2    c-5.5,0.9-11,1.7-16.5,2.7c-2.2,0.4-4.5,0.7-6.7,0c-6.1-1.7-12.2-3.1-18.3-4.7c-0.2-6.8-0.1-13.6-0.2-20.5c0-2-0.3-4,0.3-5.9    c1.5-1.7,3.4-2.9,5-4.5c-4.3-1.4-8.5-2.9-12.8-4.3c2.8-2.9,5.8-5.6,8.6-8.4c-10.7-3.7-21.4-7.3-32.1-10.9    c-3.6,2.8-7.4,5.6-11.2,8.2c-0.5,11.9-1,23.8-1.5,35.6c3.5-1.8,6.9-3.8,10.4-5.6c-0.3,8.3-0.7,16.6-1.1,24.8    c1.8,0.2,3.7,0.6,5.5,1.3c3.7,0.5,7.6-0.1,11.3,0.7c2.5,1.6,4.3,4,6.5,6.1c-0.3,5-1.3,10-1.1,15.1c3.7-1.3,7.1-3.6,11-3.8    c72.2,0.5,144.3,1,216.5,1.5c0.1,42.5,0.2,85,0.2,127.5c12.6-0.3,25.2-0.2,37.8-0.9c-0.3-11.6,0-23.1,0-34.7    C2599.1,1023.4,2599.6,968.2,2599.6,913z"
   id="path224"
   style="stroke:none;stroke-opacity:1;fill:#ffffff;fill-opacity:0" />
		<path
   class="st8"
   d="M1068.7,1036.1c-0.1-102.1-0.1-204.2-0.2-306.3c-16,0-32.1,0-48.1,0c0.1,102.1,0.1,204.3,0.2,306.4    C1036.6,1036.1,1052.6,1036.2,1068.7,1036.1z"
   id="path226"
   style="stroke:none;stroke-opacity:1;fill:#ffffff;fill-opacity:0" />
		<path
   class="st8"
   d="M2272.9,754.6c-0.1-6.5-0.1-13-0.1-19.5c-15.7-0.9-31.5-1.8-47.2-2.6c-0.3,1.9-0.7,3.7-1,5.6    C2240.7,743.6,2256.8,749.2,2272.9,754.6z"
   id="path228"
   style="stroke:none;stroke-opacity:1;fill:#ffffff;fill-opacity:0" />
		<path
   class="st8"
   d="M2325.7,754.8c0.2,6,0.2,12.1,0.5,18.1c19.4,6.6,38.7,13.3,58,19.8c5-16.5,8.1-33.7,8.7-51    c-22.4-1.3-44.9-2.4-67.3-3.7C2326,743.6,2325.5,749.2,2325.7,754.8z"
   id="path230"
   style="stroke:none;stroke-opacity:1;fill:#ffffff;fill-opacity:0" />
		<path
   class="st8"
   d="M2078.7,766.8c0,7.8-0.1,15.7,0,23.5c28.5-15.7,57-31.3,85.6-46.9c-0.6-1.8-1.1-3.5-1.7-5.3    c-27.2,6.1-54.3,12.5-81.5,18.7c-3.4,0.9-6.8,1.3-10,2.6c1.4,2.4,2.9,4.9,4.3,7.3C2076.4,766.7,2077.6,766.7,2078.7,766.8z"
   id="path232"
   style="stroke:none;stroke-opacity:1;fill:#ffffff;fill-opacity:0" />
		<path
   class="st8"
   d="M2221.5,746c9.1,6.4,18.3,12.5,27.4,18.8c8.1,5.5,16.1,11.2,24.3,16.5c0-7.7-0.3-15.4-0.3-23.1    c-16.4-5.6-32.9-11.3-49.3-16.9C2223,742.9,2222.2,744.4,2221.5,746z"
   id="path234"
   style="stroke:none;stroke-opacity:1;fill:#ffffff;fill-opacity:0" />
		<path
   class="st8"
   d="M2168.7,750.7c-1-1.5-2-2.9-2.9-4.4c-29.1,15.8-58,31.9-87.1,47.6c-0.1,14.5-0.2,28.9,0,43.4    C2108.7,808.5,2138.7,779.5,2168.7,750.7z"
   id="path236"
   style="stroke:none;stroke-opacity:1;fill:#ffffff;fill-opacity:0" />
		<path
   class="st8"
   d="M2392.8,772.3c-0.2,1.4-0.8,3,0.4,4.2c7.2,8.4,14.4,16.8,21.6,25.1c1.2-3.9,2.3-7.9,3.6-11.7    c3.8,4.2,7.4,8.6,11.1,12.9c-0.1-11.9-1-23.8-2.9-35.6c-0.6-3.5-1.4-7-1.9-10.5l-0.5,0.3c0.2-2.1,0.2-4.1,0.3-6.2    c-0.2,0.9-0.5,1.7-0.7,2.6c-0.7-2.4-1.3-4.7-2-7c-9,4.9-18,9.8-26.9,14.8C2394.1,764.8,2393.6,768.6,2392.8,772.3z"
   id="path238"
   style="stroke:none;stroke-opacity:1;fill:#ffffff;fill-opacity:0" />
		<path
   class="st8"
   d="M2219.2,748.8c-0.2,2.8,1,5.5,1.6,8.2c0.4,2.2,1.9,3.8,3.3,5.4c16.1,18.9,32,37.8,48.1,56.6    c0.3-11.2,0.7-22.3,1-33.5v-0.2c-14.1-9.5-28.1-19.2-42.2-28.8C2227.1,754.1,2223.4,751.1,2219.2,748.8z"
   id="path240"
   style="stroke:none;stroke-opacity:1;fill:#ffffff;fill-opacity:0" />
		<path
   class="st8"
   d="M2084.3,907c22.8-37.7,45.5-75.5,68.3-113.2c4-6.8,8.3-13.5,12.2-20.4c2.5-6.4,4.5-13.1,6.8-19.6    c-0.2-0.1-0.6-0.3-0.9-0.4c-16.3,15.8-32.7,31.5-49.1,47.3c-14.3,13.7-28.5,27.6-42.9,41.2c0.1,20.5,0.2,41.1,0.4,61.6    C2080.8,904.6,2082.6,905.8,2084.3,907z"
   id="path242"
   style="stroke:none;stroke-opacity:1;fill:#ffffff;fill-opacity:0" />
		<path
   class="st8"
   d="M1969,780.8c9.7,3.4,19.5,6.7,29.2,10.1c-2.2-10.6-4.4-21.3-6.4-32C1984.2,766.2,1976.6,773.5,1969,780.8z"
   id="path244"
   style="stroke:none;stroke-opacity:1;fill:#ffffff;fill-opacity:0" />
		<path
   class="st8"
   d="M2194.7,763.2c-1.6,4.5-1.4,9.4-1.7,14.1c-2.6,54.8-5.3,109.5-7.8,164.3c16.5,0.7,33.2-0.5,49.3-4.4    c-6.7-32.3-12.9-64.6-20.3-96.7c-5.8-25.8-11.7-51.5-17.4-77.3C2196,763.2,2195.3,763.2,2194.7,763.2z"
   id="path246"
   style="stroke:none;stroke-opacity:1;fill:#ffffff;fill-opacity:0" />
		<path
   class="st8"
   d="M2223.5,766.7c3.7,14.1,7.5,28.1,11.2,42.2c1.2,5,4,9.4,6.1,14.1c15.2,31.5,30.4,62.9,45.6,94.4    c14.6-7.8,28-17.9,40-29.4c-11.8-14.1-23.8-28.1-35.7-42.1c-0.3,1.3-0.6,2.6-0.9,3.9c-4.1-0.1-8.2,0.3-12.3-0.1    c-1.3-1-1.8-2.8-2.4-4.3c-2.2-6.8-2.5-14-2.7-21C2256.2,805.2,2239.8,786,2223.5,766.7z"
   id="path248"
   style="stroke:none;stroke-opacity:1;fill:#ffffff;fill-opacity:0" />
		<path
   class="st8"
   d="M2022.9,770.2c-8.1,1.9-16.2,3.7-24.3,5.6c3.4,17,9,33.5,16.5,49.2c2.4-1.2,4.7-2.5,7.1-3.8    C2022.5,804.2,2022.8,787.2,2022.9,770.2z"
   id="path250"
   style="stroke:none;stroke-opacity:1;fill:#ffffff;fill-opacity:0" />
		<path
   class="st8"
   d="M1965.9,791.2c-1-6.2-2.4-12.4-3.6-18.5c-2.8,2.6-5.4,5.2-8.2,7.8c3.4,1.4,5.6,4.4,8.1,6.9    c-0.1,0.8-0.2,1.6-0.2,2.4C1963.3,790.3,1964.6,790.7,1965.9,791.2z"
   id="path252"
   style="stroke:none;stroke-opacity:1;fill:#ffffff;fill-opacity:0" />
		<path
   class="st8"
   d="M2362.6,842.5c8.9-14.5,15.9-30.3,20.8-46.6c-19-6.5-37.9-13.1-57-19.4c0.2,10.4,0.5,20.8,0.3,31.2    c-4.9,0-9.7-0.2-14.5,0.2c6.8,5.1,14.1,9.7,21.1,14.6C2343,829.2,2352.8,835.8,2362.6,842.5z"
   id="path254"
   style="stroke:none;stroke-opacity:1;fill:#ffffff;fill-opacity:0" />
		<path
   class="st8"
   d="M2388.8,790.1c-2,7-4.3,13.9-6.4,20.9c10-2.3,20-4.5,29.9-7.1c-6.8-8-13.7-16.1-20.6-24    C2390.6,783.3,2389.7,786.7,2388.8,790.1z"
   id="path256"
   style="stroke:none;stroke-opacity:1;fill:#ffffff;fill-opacity:0" />
		<path
   class="st8"
   d="M2181.8,941.3c2.6-53,5.1-106,7.6-159c-13.8,51.3-27.8,102.5-41.7,153.8    C2158.9,939,2170.3,940.9,2181.8,941.3z"
   id="path258"
   style="stroke:none;stroke-opacity:1;fill:#ffffff;fill-opacity:0" />
		<path
   class="st8"
   d="M2148.8,820.9c3.5-10.5,7.3-20.9,10.6-31.5c-0.5,0.6-0.9,1.2-1.4,1.9c-23.6,39.2-47.3,78.4-70.9,117.7    c8.4,5.8,17.3,10.9,26.6,15.1C2125.4,889.7,2137,855.3,2148.8,820.9z"
   id="path260"
   style="stroke:none;stroke-opacity:1;fill:#ffffff;fill-opacity:0" />
		<path
   class="st8"
   d="M2414.4,814.6c1.4-0.3,2.8-0.6,4.2-1c0.2-1.2-0.2-2.7,0.9-3.5c2.2-2,4.6-4.1,7.4-5.3c-2.5-2.6-4.5-5.6-7.2-8    C2417.9,802.7,2416.1,808.7,2414.4,814.6z"
   id="path262"
   style="stroke:none;stroke-opacity:1;fill:#ffffff;fill-opacity:0" />
		<path
   class="st8"
   d="M2328.8,885.6c5-4.6,9.6-9.6,14-14.8c6.7-8,12.8-16.4,18.1-25.4c-18.4-12.7-37-25.2-55.3-37.9l-0.2,0    c-4,0.2-8.1,0-12.1,0.1c-0.4,7,0.3,14,0.2,21c-0.5,4.3-1.1,8.6-2.3,12.7C2303.7,856.1,2316.3,870.8,2328.8,885.6z"
   id="path264"
   style="stroke:none;stroke-opacity:1;fill:#ffffff;fill-opacity:0" />
		<path
   class="st8"
   d="M2462.9,812.6c0-1.7,0-3.4,0-5.1c-1.8,0-3.6,0-5.3,0.1C2459.2,809.4,2460.9,811.1,2462.9,812.6z"
   id="path266"
   style="stroke:none;stroke-opacity:1;fill:#ffffff;fill-opacity:0" />
		<path
   class="st8"
   d="M2007.8,829.8c1.9,0,3.9,0,5.9,0c-2.7-5.3-4.9-10.9-7.8-16.1c-4.8,7.8-9.5,15.7-14.4,23.5    c-0.1,1.3-0.1,2.6,0,4c5.4,0.2,10.8,0.6,16.3,0.9c0.1-3.9,0-7.9,0.1-11.8L2007.8,829.8z"
   id="path268"
   style="stroke:none;stroke-opacity:1;fill:#ffffff;fill-opacity:0" />
		<path
   class="st8"
   d="M2022.1,830c0.1-1.7,0.1-3.3,0.2-5c-1.9,1-3.7,2-5.5,3c0.2,0.6,0.5,1.3,0.7,1.9    C2019,829.9,2020.5,829.9,2022.1,830z"
   id="path270"
   style="stroke:none;stroke-opacity:1;fill:#ffffff;fill-opacity:0" />
		<path
   class="st8"
   d="M2240.5,830.1c1.8,8,4.2,15.8,6.2,23.8c6.5,24.5,13,48.9,19.6,73.4c5.9-2.3,11.7-5.2,17.3-8.3    C2269.1,889.4,2255,859.7,2240.5,830.1z"
   id="path272"
   style="stroke:none;stroke-opacity:1;fill:#ffffff;fill-opacity:0" />
		<path
   class="st8"
   d="M2386.9,861.1c-4.5-9.7-9.4-19.2-14-28.8c-2.6,3.5-4.4,7.5-6.7,11.2c-3.2,5.5-6.8,10.7-9.8,16.3    C2366.5,860.2,2376.7,860.7,2386.9,861.1z"
   id="path274"
   style="stroke:none;stroke-opacity:1;fill:#ffffff;fill-opacity:0" />
		<path
   class="st8"
   d="M1979,844.1c0-2,0-3.9,0-5.9c-1.3,1.9-2.5,3.8-3.6,5.9C1976.6,844,1977.8,844,1979,844.1z"
   id="path276"
   style="stroke:none;stroke-opacity:1;fill:#ffffff;fill-opacity:0" />
		<path
   class="st8"
   d="M2389.5,872.1c1.3,0,2.7,0.1,4-0.2c1.2-0.5,2.2-1.5,3.5-2c1.9-0.3,3.8-0.1,5.7,0c-2.1-4.7-4.5-9.2-6.7-13.8    c-3.5,5.1-6.4,10.6-9.7,15.8C2387.3,872,2388.4,872,2389.5,872.1z"
   id="path278"
   style="stroke:none;stroke-opacity:1;fill:#ffffff;fill-opacity:0" />
		<path
   class="st8"
   d="M2331.9,887.6c-4.4,4.4-9.1,8.4-13.5,12.9c9.8,3.2,19.5,6.7,29.2,9.8c-2.2-10.6-4.3-21.2-6.5-31.8    C2337.9,881.4,2335,884.6,2331.9,887.6z"
   id="path280"
   style="stroke:none;stroke-opacity:1;fill:#ffffff;fill-opacity:0" />
		<path
   class="st8"
   d="M2096.8,919.8c-5.8-4.1-11.9-7.9-17.7-12c0,7.2,0.1,14.4,0.1,21.6C2085.1,926.1,2091,923,2096.8,919.8z"
   id="path282"
   style="stroke:none;stroke-opacity:1;fill:#ffffff;fill-opacity:0" />
		<path
   class="st8"
   d="M2361.3,926c-1.2-6-2.5-12-3.7-18c-4.6,4.1-8.9,8.4-13.2,12.7C2350.1,922.3,2355.5,924.7,2361.3,926z"
   id="path284"
   style="stroke:none;stroke-opacity:1;fill:#ffffff;fill-opacity:0" />
		<path
   class="st8"
   d="M2272.8,928.9c8.6,5.9,17.2,11.8,25.9,17.5c0.4-10.9,1-21.7,1.4-32.6c-4.6,2.5-9,5.1-13.6,7.6    C2281.9,923.9,2277.3,926.3,2272.8,928.9z"
   id="path286"
   style="stroke:none;stroke-opacity:1;fill:#ffffff;fill-opacity:0" />
		<path
   class="st8"
   d="M2099.4,965.9c4.4-12.9,8.8-25.7,13.1-38.6c-3.2-1.5-6.4-3.1-9.5-4.8c-1-0.4-2.1-1.3-3.1-0.5    c-6.9,3.7-13.6,7.5-20.5,11.1c0,3.4,0,6.9,0,10.3c0.2,0.2,0.5,0.6,0.7,0.9c-1,2.3-0.6,4.7-0.6,7.1c0.2,18.9,0.3,37.8,0.4,56.7    c1.7,0,3.5,0,5.2,0.1c3.6-11.5,8.1-22.8,11.4-34.4c-0.1-2.6-0.1-5.2-0.1-7.7C2097.4,965.9,2098.4,965.9,2099.4,965.9z"
   id="path288"
   style="stroke:none;stroke-opacity:1;fill:#ffffff;fill-opacity:0" />
		<path
   class="st8"
   d="M2303.1,1001.3c-4.1-1.4-8.4-2.2-12.6-3.4c-0.1-8.8-0.2-17.5-0.2-26.3c1.8-1.5,3.5-3,5.3-4.4    c2-1.8,4.9-0.9,7.4-1c-5.5-3.7-11-7.3-16.3-11.2c3.4-1.9,6.8-3.8,10.3-5.7c-9.4-6.5-19-13-28.5-19.4c-0.3,0.1-1,0.4-1.4,0.5    c6.8,25.7,13.6,51.4,20.6,77C2292.9,1005.7,2298,1003.4,2303.1,1001.3z"
   id="path290"
   style="stroke:none;stroke-opacity:1;fill:#ffffff;fill-opacity:0" />
		<path
   class="st8"
   d="M2176.8,993.5c-3.1-6.4-6.2-12.7-9.3-19.2c3.9,0.2,7.7,0.4,11.6,0.5c-5.1-10.7-10.3-21.3-15.5-32    c-4.4-0.8-8.7-1.6-13-2.6c-2.3,2.3-5.5,4.2-6.1,7.6c-3.5,13.4-7.3,26.8-10.8,40.2c1.1,1.2,3.1,2.2,3,4.1l0.1,1.1    c4.8,0,9.6,0,14.5,0c0,4.9,0,9.8,0,14.7c2.5-0.1,5-0.1,7.5-0.2c0-2,0-3.9,0-5.9c2.4-2.1,4.8-4.1,7.5-5.9c0-0.9,0-1.8,0-2.6    C2169.6,993.5,2173.2,993.5,2176.8,993.5z"
   id="path292"
   style="stroke:none;stroke-opacity:1;fill:#ffffff;fill-opacity:0" />
		<path
   class="st8"
   d="M2240.1,955.2c-1.2-4.9-2.3-9.8-3.3-14.7c-5,1-10,2.2-15,3.4c3.1,3.7,6.4,7.3,9.4,11    C2234.1,955.1,2237.1,955,2240.1,955.2z"
   id="path294"
   style="stroke:none;stroke-opacity:1;fill:#ffffff;fill-opacity:0" />
		<path
   class="st8"
   d="M2182,973.1c5.7-9,11.1-18.3,16.7-27.4c-10.2-0.5-20.4-0.9-30.7-1.6C2172.6,953.8,2177.4,963.4,2182,973.1z"
   id="path296"
   style="stroke:none;stroke-opacity:1;fill:#ffffff;fill-opacity:0" />
		<path
   class="st8"
   d="M2210.5,1008c4.1,0,8.2,0,12.3,0c0.1-17.6,0.1-35.3,0.1-52.9c1.3,0,2.7,0,4.1-0.1c-3.2-3.8-6.5-7.6-9.7-11.3    c-4.7,0.5-9.5,0.9-14.2,1.2c-6,10.1-12.3,20-18.1,30.2c3.8,0.2,7.7,0.4,11.5,0.6c-4.2,7.1-8.5,14-12.7,21.1    c3.7,1.1,7.7,0.6,11.6,0.9c0-1.5,0-3,0-4.4c5.1,0,10.1,0,15.2,0C2210.5,998.2,2210.5,1003.1,2210.5,1008z"
   id="path298"
   style="stroke:none;stroke-opacity:1;fill:#ffffff;fill-opacity:0" />
		<path
   class="st8"
   d="M2308.8,946.8c-5.3,2.8-10.6,5.6-15.7,8.7c5,3.3,9.9,6.8,14.9,10C2308.3,959.3,2308.5,953,2308.8,946.8z"
   id="path300"
   style="stroke:none;stroke-opacity:1;fill:#ffffff;fill-opacity:0" />
		<path
   class="st8"
   d="M2181.3,994.3c3.1-5.2,6.3-10.3,9.4-15.5c-5.9-0.3-11.9-0.7-17.8-0.8c2.7,5.1,4.8,10.5,7.8,15.5    C2180.9,993.7,2181.2,994.1,2181.3,994.3z"
   id="path302"
   style="stroke:none;stroke-opacity:1;fill:#ffffff;fill-opacity:0" />
		<path
   class="st8"
   d="M2505.5,1114.2c-471.7,0.2-943.5,0.5-1415.2,0.7c-222.1,0.1-444.1,0.2-666.2,0.3c-6.1,0.1-12.2-0.3-18.3,0.3    c234.8,0.8,469.5,1.1,704.3,1.2c2.2-0.4,4.5-0.5,6.8-0.4c30.3,0.1,60.6,0,90.9,0.1c12.3-0.3,24.6,0,37-0.1    c43.9,0,87.8,0.1,131.8,0.1c59.6-0.1,119.2-0.2,178.8,0c22.1,0,44.2,0,66.2-0.1c14.3,0.1,28.5-0.2,42.8,0.1    c34.7-0.2,69.4-0.1,104.2-0.1c5.6,0.1,11.3-0.3,16.9,0.3c120.1-0.1,240.3-0.3,360.4-0.6c133.7-0.3,267.5-0.7,401.2-1.7    C2533.1,1114,2519.3,1114.3,2505.5,1114.2z"
   id="path304"
   style="stroke:none;stroke-opacity:1;fill:#ffffff;fill-opacity:0" />
	</g>
	<path
   class="st9"
   d="M1110,1116.7c2.2-0.4,4.5-0.5,6.8-0.4c30.3,0.1,60.6,0,90.9,0.1l1,0.4H1111L1110,1116.7z"
   id="path308"
   style="stroke:none;stroke-opacity:1;fill:#ffffff;fill-opacity:0" />
	<path
   class="st10"
   d="M1207.7,1116.5c12.3-0.3,24.6,0,37-0.1c43.9,0,87.8,0.1,131.8,0.1c59.6-0.1,119.2-0.2,178.8,0l0.7,0.5h-347.1   L1207.7,1116.5z"
   id="path310"
   style="stroke:none;stroke-opacity:1;fill:#ffffff;fill-opacity:0" />
	<path
   class="st11"
   d="M1555.1,1116.4c22.1,0,44.2,0,66.2-0.1c14.3,0.1,28.5-0.2,42.8,0.1l-1,0.4h-107.4L1555.1,1116.4z"
   id="path312"
   style="stroke:none;stroke-opacity:1;fill:#ffffff;fill-opacity:0" />
	<path
   class="st12"
   d="M1664.2,1116.5c34.7-0.2,69.4-0.1,104.2-0.1c5.6,0.1,11.3-0.3,16.9,0.3l-1,0.3h-121.1L1664.2,1116.5z"
   id="path314"
   style="stroke:none;stroke-opacity:1;fill:#ffffff;fill-opacity:0" />
	<path
   class="st6"
   d="M2600.1,986.6c-72.2-0.6-183.4-1-255.6-1.5c-4,0.2-7.4,2.6-11,3.8c-10.1,4.1-20.2,8.3-30.3,12.4   c-5.2,2-10.2,4.3-15.4,6.3c-7.4,0.2-14.7,0-22.1,0c-0.5-3.9-0.4-7.9-0.4-11.8c-0.1-13.5-0.6-27-0.7-40.5   c-8.1-0.3-16.2,0.1-24.3-0.1c-3-0.2-6,0-9-0.3c-1.4,0-2.8,0.1-4.1,0.1c-1.4,0-2.7,0-4.1,0.1c0,17.6,0,35.3-0.1,52.9   c-4.1,0-8.2,0-12.3,0c0-4.9,0-9.8,0-14.7c-5.1,0-10.1,0-15.2,0c0,1.5,0,2.9,0,4.4c0,3.4,0.1,6.9-0.1,10.3c-3-0.1-6,0-8.9,0   c-1.7,0-3.3,0-4.9-0.1c-0.3-4.6-0.2-9.1-0.1-13.7c-0.2-0.2-0.5-0.6-0.6-0.9c-1.3,0-2.7,0-4,0c-3.6,0-7.1,0-10.7,0   c0,0.9,0,1.7,0,2.6c0,4,0.1,7.9-0.1,11.9c-5-0.1-9.9,0.3-14.9,0c0-4.9,0-9.8,0-14.7c-4.8,0-9.6,0-14.5,0l-0.1-1.1   c-1.7,5.2-0.3,10.6-0.5,15.9l-0.4,0c-2.3,0.1-4.6,0.3-6.9,0.3c-14.5-0.5-29.1-0.1-43.7-0.2c-1.8,0-3.5-0.1-5.2-0.1   c-0.2-18.9-0.3-37.8-0.4-56.7c0-2.4-0.3-4.9,0.6-7.1c-0.2-0.2-0.5-0.6-0.7-0.9c0-3.4-0.1-6.9,0-10.3c0-1.3,0-2.5,0-3.7   c-0.1-7.2-0.1-14.4-0.1-21.6c0-1.5,0-2.9,0-4.4c-0.2-20.5-0.4-41.1-0.4-61.6c0-1.5-0.1-3-0.1-4.5c-0.2-14.5-0.1-28.9,0-43.4   c0-1.2,0-2.5,0-3.7c-0.1-7.8,0-15.7,0-23.5c-1.1,0-2.3,0-3.4,0c-1.4-2.5-2.8-4.9-4.3-7.3c-0.7-1.1-1.3-2.2-1.9-3.3   c-5.6-9.6-11.1-19.3-16.7-28.9c-5.1,8.9-10.2,17.7-15.4,26.6c-2.2,3.6-4,7.5-6.5,11c-2.3,1.2-5,1.3-7.5,1.9   c-0.1,1.1-0.2,2.3-0.3,3.5c-0.1,17-0.5,34-0.7,51c0,1.3,0,2.5,0,3.8c0,1.7-0.1,3.3-0.2,5c-1.6-0.1-3.1-0.1-4.6-0.1   c-3.2,0.1-6.5,0.4-9.7,0.4c-0.1,3.9,0,7.8-0.1,11.8c0,0.5,0,1.4-0.1,1.8c-5.4,0.2-10.8,0.2-16.1,0c-0.1-0.9-0.1-1.8-0.1-2.7   c0-1.3,0-2.6,0-4c0-2.1,0-4.2,0-6.3c-0.1-0.3-0.2-0.8-0.2-1c-3-0.1-6,0-9,0c-0.3-0.5-0.7-1-1-1.5c-0.8,0.6-1.5,1.2-2.2,1.8   c0,0.4-0.1,1.1-0.2,1.5c0,2.1,0.1,4.3,0.1,6.4c0,1.9,0,3.9,0,5.9c-1.2,0-2.4,0-3.5,0c-1.3,0-2.7,0-3.9,0c-2.7,0.1-5.4,0.1-8.1,0   c0.1-4.7,0-9.4,0.1-14c-4.2-0.1-8.3,0-12.5-0.1c0,4.7,0,9.4,0,14.1c-5.2,0-10.4,0-15.6,0c0-4.7,0-9.4,0-14.1c-4.2,0-8.3,0-12.5,0   c0,4.7,0,9.4,0,14.1c-5.2,0-10.4,0-15.6,0c0-4.7,0-9.4,0-14.1c-4.1,0-8.3,0-12.4,0c-0.2,4.7,0,9.5-0.1,14.2c-5.2,0-10.4,0-15.5,0   c0-4.7,0-9.4,0-14.2c-4.1,0-8.3,0-12.4,0c-0.1,4.7,0,9.4,0,14.2c-5.2,0-10.4,0.1-15.6,0c0-4.7,0.1-9.4,0-14.1c-4.1,0-8.3,0-12.4,0   c0,4.7,0,9.4,0,14.2c-5.2,0-10.3,0-15.5,0c0-4.7,0-9.4,0-14.1c-3.4,0-6.7,0-10.1,0c-0.2-21-0.4-42.1-0.6-63.1c-1.1,0-2.2,0-3.3,0   c-7.7-13.1-15.2-26.3-22.8-39.5c-7.6,13.1-15.2,26.3-22.8,39.4c-1.6,0-3.2,0-4.8,0.1c0,60.2,0,120.4,0,180.6c-5.6,0-11.2,0-16.7,0   c0-65.1,0-130.3,0-195.4c0-40.4,0-80.9,0-121.3c-2.1,0-4.3,0-6.4,0c-4.2,0-8.4,0-12.7,0c-0.1-2.8-0.1-5.7-0.1-8.5   c6.4,0,12.8-0.1,19.2,0c0-27.8,0-55.6,0-83.4c-2.1,0-4.3,0-6.4,0c-30.1,0-60.2,0-90.3,0c-0.2,27.9,0,55.8-0.1,83.7   c6.5,0,12.9,0,19.4,0c0,2.5,0.1,5,0.1,7.4c-6.5,0-13,0-19.5,0c0,135.4,0,270.9,0,406.3c-5,0-10,0-15.1,0c-0.1-90.8,0-181.6,0-272.4   c0.1-58.1-0.2-116.2,0.2-174.3c-39.3,17-78.6,34-117.9,51c0,130.8,0,261.6,0,392.4c-7.5-8-14.6-16.4-22.2-24.4   c-3.3-0.6-6.7-0.1-10.1-0.2c0-4,0-8.1,0-12.1c3.7-0.1,7.4,0,11.2-0.1c0-6,0-11.9,0-17.9c-3.7,0-7.4,0-11.1,0c-0.1-4.1,0-8.1,0-12.2   c3.7,0,7.4,0,11.1,0c0-5.9,0-11.9,0-17.8c-3.7-0.1-7.5,0-11.2-0.1c0-4,0-8.1,0-12.1c3.7,0,7.4,0,11.1,0c0.1-6,0-11.9,0-17.9   c-3.7,0-7.4,0-11.1,0c0-4.4,0-8.8-0.1-13.2c3.7-0.1,7.4-0.1,11.2-0.1c0-6,0-11.9,0-17.9c-3.7,0-7.4,0-11.1,0c-0.1-4.3-0.2-8.6,0-13   c3.6-0.5,7.4-0.1,11.1-0.2c0-6,0-11.9,0-17.9c-3.7,0-7.5,0.1-11.2-0.1c0.2-4.3-0.3-8.7,0.3-13c3.6-0.3,7.3,0,10.9-0.1   c0-6,0-11.9,0-17.9c-3.7,0-7.4,0-11.1,0c0-4.4,0-8.7,0-13.1c3.7,0,7.4,0,11.1,0c0-6,0-11.9,0-17.9c-3.7-0.1-7.4,0-11.2-0.1   c0-4.4,0-8.7,0-13.1c3.7,0,7.4,0,11.1,0c0-5.9,0-11.9,0-17.8c-3.7-0.1-7.5,0-11.2-0.1c0-4.4,0-8.8,0-13.1c3.7,0,7.4,0,11.1,0   c0-6,0-11.9,0-17.9c-3.7,0-7.4,0-11.1,0c0-4.4,0-8.7,0-13.1c3.7,0,7.4,0,11.1,0c0-6,0-11.9,0-17.9c-3.7,0-7.4,0-11.1,0   c0-4.4,0-8.8,0-13.1c3.7,0,7.4,0,11.1,0c0-6,0-11.9,0-17.9c-3.7,0-7.4,0-11.1,0c0-4.4,0-8.7,0-13.1c3.7,0,7.4,0,11.1,0   c0.1-6,0-11.9,0-17.9c-3.7,0-7.4,0-11.1,0c0-4.4,0-8.7,0-13.1c3.7,0,7.4,0,11.2-0.1c-0.1-5.9,0-11.9,0-17.8c-3.7,0-7.4,0-11.1,0   c0-4.1,0-8.2,0-12.3c3.7,0,7.4,0,11.1,0c0-5.9,0-11.9,0-17.8c-3.7-0.1-7.4,0-11.2,0c0-4.1,0-8.2,0-12.2c3.7,0,7.4,0,11.2-0.1   c-0.1-5.9,0-11.9,0-17.8c-3.7,0-7.4,0-11.1,0c0-4.1,0-8.2,0-12.3c3.7,0,7.4,0,11.1,0c0-5.9,0-11.9,0-17.8c-3.7-0.1-7.5,0-11.2-0.1   c0-4.4,0-8.9,0-13.3c3.7,0,7.4,0,11.2,0c0-6,0-11.9,0-17.9c-3.7,0-7.4,0-11.1,0c0-4.2,0-8.3,0-12.5c3.7,0,7.4,0,11.2,0   c0-2.9,0-5.8,0-8.8c0-3,0-6,0-9.1c-3.7-0.1-7.4,0-11.2,0c0-4.2,0-8.4,0-12.6c3.7,0,7.4,0,11.2,0c0-6,0-11.9,0-17.9   c-3.7,0-7.5,0-11.2-0.1c0.1-25.6,0-51.2,0.1-76.8c-4.2,0-8.4,0-12.6,0c0.1,14.9,0.1,29.8,0.2,44.7c-6,0-12.1,0-18.1,0   c-0.1-6.2-0.2-12.5-0.2-18.7c-7.5,0-15,0-22.5,0c0,6.2,0,12.5,0,18.7c-6.1,0-12.2,0-18.3,0c0.1,5.7,0.2,11.4,0.3,17.1   c3.1,0,6.3,0,9.4,0c0,5,0,9.9,0,14.9c-4,0-8,0-12,0c0,6,0,11.9,0,17.9c4,0,8,0,12,0c0,4.2,0,8.4,0,12.6c-4,0-8,0-12.1,0.1   c0,3.1,0,6.1,0,9.2c0,2.9,0,5.7,0,8.6c4,0,8,0,12,0c0,4.2,0,8.3,0,12.5c-4,0-8,0-12,0c0,5.9,0,11.9,0,17.8c4,0.1,8,0,12,0.1v13.3   c-4,0-8,0-12,0c-0.1,6,0,11.9-0.1,17.9c4,0,8,0,12,0c0,4.1,0,8.2,0,12.3c-4,0-8,0-12,0c0,5.9,0,11.9,0,17.8c4,0.1,8,0,12,0   c0,4.1,0,8.2,0,12.2c-4,0-8-0.1-12.1,0.1c0.1,5.9,0,11.9,0,17.8c4,0,8,0,12,0c0,4.1,0,8.2,0,12.3c-4,0-8-0.1-12.1,0.1   c0.1,5.9,0,11.9,0,17.8c4,0,8,0,12,0v13.1c-4,0-8,0-12,0c0,6-0.1,11.9,0,17.9c4,0,8,0,12,0c0,4.4,0,8.7,0,13.1c-4,0-8,0-12,0   c0,6,0,11.9,0,17.9c4,0,8,0,12,0c0,4.4,0,8.7,0,13.1c-4,0-8,0-12,0c0,6,0,11.9,0,17.9c4,0,8,0,12,0c0,4.4,0,8.7,0,13.1   c-4,0-8,0-12,0c-0.1,6,0,11.9,0,17.9c4,0,8,0,12,0v13.1c-4,0-8-0.1-12.1,0.1c0.1,5.9,0,11.9,0,17.8c4,0,8,0,12,0   c0,4.4,0,8.7,0,13.1c-4,0-8-0.1-12,0.1c0.1,5.9,0,11.9,0,17.8c4,0,8,0,12,0c0,4.4,0,8.7,0,13.1c-4,0-8,0-12,0.1   c0.1,5.9,0,11.9,0,17.8c4,0,8,0,12,0c0,4.4,0,8.8,0,13.1c-4,0-8,0-12,0c0,6,0,11.9,0,17.9c4,0,8,0,12,0c0,4.4,0,8.8,0,13.2   c-4,0-8,0-12,0c0,6,0,11.9,0,17.9c4,0,8,0,12,0c0,4.4,0,8.8,0,13.2c-4,0-8,0-12,0c0,6-0.1,11.9,0,17.9c4,0,8,0,12,0v12.1   c-4,0.2-8-0.4-11.9,0.3c-0.2,5.9,0,11.8-0.1,17.6c4,0,8,0,12,0c0,4,0,8.1,0,12.2c-4,0-8,0-12,0c0,6,0,11.9,0,17.9c4,0,8,0,12,0   c0.1,4.1,0,8.1,0.1,12.2c-4,0-8,0-12,0c0,9.3,0,18.6,0,27.9c-4.6,0-9.2,0-13.8,0c-0.2-52.3,0-104.6-0.1-156.9   c0-118.2,0-236.3,0-354.5c-11.8,0-23.6,0-35.4,0c-6,0-12.1,0-18.1,0c-14.6,0-29.1,0-43.6,0c-0.1,17.3-0.1,34.6-0.2,51.9   c-2.4,0-4.7,0-7-0.1c0.1-4.8,0-9.6,0-14.4c-7.4,0-14.7,0.1-22.1,0.1c0,4.7,0.2,9.4,0.2,14.1c-5.3,0-10.6,0.1-15.8,0.2   c-0.1,134.6,0,269.3-0.1,403.9c-40.1,0.7-80.2,1.4-120.3,2.1c0,17.8,0,35.6,0,53.5c-11,0-22,0-33,0c-0.6-59.6-0.3-119.2-0.1-178.9   c-0.2-13.4,0-26.7,0.1-40.1c0-19.1,0.1-38.2,0.1-57.3c0-13.1-0.3-26.3,0.3-39.4c0.1-3.9-0.5-8-2.7-11.3c-2.4-3.6-4.5-7.5-7-11.1   c-1-1.5-2.5-2.7-4.4-2.8c-2.7-0.2-5.5-0.1-8.2,0c1.5-2.2,1.3-5,1.8-7.6c0.6-3.3,0.9-6.6,0.8-9.9c2-0.3,3.9-1,5.8-1.9   c-0.3-2.4-0.4-5.2-2.4-6.9c-1.2-1.4-3.3-2.3-3.4-4.4c-0.7-6.3,0.2-12.8-2.2-18.8c-0.9-2.7-2.5-5.1-3.4-7.9   c-0.2-2.9,0.8-5.7,1.1-8.5c3.1,0.9,6.3,1.5,8.9,3.6c2.1,1.7,2.7,4.7,4.9,6.3c1.3,1.1,3.3,1.7,4,3.4c1.3,2.6,0.7,5.6,1.8,8.3   c1.4,2.1,5.5,2.6,6.8,0c1.4-3.2,0.4-6.8,0.2-10.2c-0.3-2.2,1.6-3.7,2.2-5.7c0.3-1.8-0.4-3.5-1-5.1c-3.3-0.9-4.9-4-7-6.3   c-2.6,0.5-5.1,1.7-7.8,1.6c-0.2,0.7-0.4,1.4-0.6,2.1c-1.8-1.3-3.6-2.6-5.2-4.2c-1.4-1.4-2.7-3.1-4.5-4c-2.1-1.1-4.4-1.8-6.7-2.5   c0.1-2.3,0.7-4.7,1.9-6.7c2.7-3.8-0.1-9.8-4.5-10.8c-2-0.5-4-0.1-6,0.2c-1.3,2.3-3.2,4.6-3,7.4c0.5,2.4,1.6,4.6,1.8,7.1   c-2.6-2.8-5.7-5-7.9-8.1c-3-4.1-6.2-8.1-9.2-12.2c-1-1.5-2.3-3.2-1.7-5.1c0.4-1.8,0.7-3.7,0.5-5.5c-1,1.1-1.8,2.4-2.5,3.8   c-0.9-0.7-1.9-1.4-2.8-2c-2.8,1.3-5.8,2-8.8,2.2c2.9,1.8,6.5,2.7,8.7,5.5c2.1,2.6,3,5.9,4.7,8.8c1.4,2.5,3.8,4.2,5.1,6.7   c1.9,3.4,3.8,6.9,5.6,10.3c-1.7-0.3-3.6-0.4-5.2-1.2c-1.9-1.3-3.4-3.2-5.6-4c-3.1-1.1-6.4-1.1-9.5-1.9c0.1-1.5,0-2.9,0.4-4.3   c0.3-1.4,1.8-2.1,2.3-3.4c0.4-3.8-1-8.1-4.5-10c-1.9-1.1-4.5-0.9-6,0.7c-1.9,1.8-2.6,4.6-2.8,7.2c-0.3,2,1.2,3.7,1.5,5.6   c-0.1,1-0.4,2-0.7,3c-2.3-1.7-4.1-3.8-5.7-6.1c-3.4-4.7-6.2-9.8-8.9-14.9c-1.4-2.9-3.1-5.8-3.9-8.9c-0.6-3.2,2.2-5.5,3.7-7.9   c-1.9,0.5-3.9,1-5.8,1.5c-1.5-2.1-2.4-4.5-3.5-6.8c-0.6,1.2-0.6,2.9-1.9,3.6c-1.6-0.3-3-1.1-4.4-1.8c-0.5,0.9-1.1,1.9-1.6,2.8   c2.2,2.5,5.3,4.2,6.7,7.3c1.7,3.6,2.4,7.6,4,11.2c3.5,8.4,7.3,16.7,12.2,24.4c3.1,4.1,0.9,10.1,4.2,14.2c1.4,1.9,2.3,4.2,2.3,6.7   c0.2,6.1-1.8,11.9-2.1,17.9c-0.1,4.7,0,9.4,0,14.2c0.4,9.2,1.5,18.5,0.7,27.7c-0.3,0-1,0-1.3,0.1c-2.4,0-4.7,0-7,0   c-2.6,4.6-6.1,8.5-9.4,12.5c-2.1,2.6-4.3,5.6-4.4,9.2c-0.2,3.9,0.3,7.9,0.2,11.8c0,102.4,0,204.9-0.1,307.3c-25,0-49.9,0-74.9,0   c0-110.9,0-221.9,0-332.8c2.5-0.1,5,0.2,7.5,0.8c-0.5,0.3-0.9,0.6-1.4,1c1.1,0.2,2.2,0.5,3.3,0.7c0.1-11.8,0-23.6,0.2-35.4   c2,0.4,3.5,1.8,5.2,2.9c2,0.4,4.5,0.2,6.3-1c3-3.3,2.6-9.3-0.9-12.1c-3.6-1.9-7.1,1.1-10.4,2.3c-0.2-2.4-0.3-4.7-0.4-7.1   c-2.8,1.7-6,2.7-9.3,2.3c-0.1-39,0-78,0-117c1.7,0,3.4,0,5.1,0c0.5,3.4,0.1,7.1,1.9,10.2c2.5-5.2,1.2-11.1,2.5-16.5   c2-0.4,3.9,0,5.8,0.7c0.3-1.1,0.8-2.2,0.9-3.4c-0.7-0.9-1.7-1.4-2.6-2c-0.6,0.6-1.2,1.2-1.8,1.8c-1-0.7-2.1-1.3-3.1-2   c2-2.1,5.1-3.8,5.7-6.9c0.1-3.4-3.5-4.9-6-6.4c0.1-1.9-0.3-4.3,1.2-5.8c1.5-1.1,3.4-1.1,5.2-1.6c-0.2,0.5-0.6,1.4-0.8,1.8   c0.9-1,1.7-2,2.4-3.1c-2-1.3-4.4-1.8-6.8-1.2c-0.6-1.8-1.3-3.5-2.3-5c-0.5,0.1-1.4,0.2-1.9,0.2c-0.7,2.1-1.4,4.3-1.3,6.6   c0.2,2.4,0.7,4.8,0.9,7.3c-1.7,0-3.5,0-5.2,0c0-7.8-0.2-15.7-0.1-23.5c0.7,0,1.3-0.1,2-0.1c0.1,2.5,0.6,5,2.1,7.1   c1.8-4.8,1.1-9.9,0.9-14.9c1.6,0.8,3.4,1.4,5.2,1.2c0-7-0.9-14-1.1-21c-0.1-3.3-0.1-6.5-0.5-9.8c-0.2-1.3-0.3-2.8-1.5-3.7   c-1-0.6-2.2-0.7-3.3-1c-1.8,2.6-1.9,5.7-1.8,8.7c-0.7,0-1.3,0-2,0c0-5.8-0.1-11.6-0.2-17.4c-0.1-13.5-0.6-27-0.1-40.5   c0.2-9,0.4-18.1,0.1-27.1c-0.2-4.3-0.3-8.6-1.8-12.6c-2.3,3.6-2,8-2.1,12.2c-0.3,16.3,0.2,32.7,0.4,49c-0.1,3.2,0.1,6.5-0.6,9.7   c-0.8,2.1-1.7,4.2-1.9,6.4c-2.3,0-4.6,0-7,0c0-3-0.1-6.3-2.1-8.7c-2.3,2.3-2.3,5.6-2.1,8.7c-6.8,0.1-13.8,1.2-20.5-0.5   c-3.4-1-6.7,0.6-10.1,0.5c-4,0-8.1,0.3-12.1-0.5c-0.1-0.4-0.4-1.3-0.5-1.7c-1.4-0.1-2.9-0.2-4.3,0c-0.7,0.4-0.7,1.2-1,1.9   c-1.1,4.5-0.3,9.2-0.3,13.8c-1.4-0.1-2.9-0.1-4.3-0.2c0-1.7,0.1-3.4,0.2-5.1c-0.8,0.9-1.5,1.7-2.2,2.6c-2.4-0.4-4.9-1.9-7.3-0.8   c-1.8,0.7-3.4,2.3-3.5,4.3c-0.2,2.9,1.2,5.7,3.3,7.6c0.5,7.6,0.1,15.3,0.3,23c1.3,0,2.6-0.1,3.8-0.3c-0.5,8.5-0.8,17-0.6,25.5   c0.2,3.8,0,7.9,1.9,11.4c1,1.9,1.7,4,1.5,6.2c-0.5-0.1-1.6-0.2-2.1-0.2c-0.1-1.6,0-3.3-0.7-4.8c-0.6-0.8-1.5-1.2-2.2-1.8   c-0.6,0.4-1.2,0.8-1.8,1.2c-1,5.5-0.8,11.1-0.9,16.7c0,16.4,0.3,32.8,0.5,49.2c1.2-0.1,2.4-0.2,3.7-0.4c0.7-1.3,1.7-2.3,2.9-3.2   c0.3,1.5,0.4,3,0.4,4.5c0.1,1.8-0.4,4.7,1.6,5.7c1.2-1.7,1.6-3.7,1.8-5.7c0.1-2.7-0.1-5.4-0.2-8.1c1.4,0.2,3.5-0.3,4.2,1.4   c0.6,2.1,0.1,4.4,0,6.5c-0.3,6.3-0.1,12.7-0.2,19c-2,0-4,0-6,0c-0.1-1.4-0.1-2.8-0.2-4.2c-1.1,0.3-2.2,0.5-3.3,0.8   c-1.1,3.8-0.9,7.8-0.7,11.8c-2.5-0.2-5-0.2-7.3,0.7c0.7,0.7,1.3,1.6,2.2,2.1c1.6,0.3,3.2,0,4.8-0.1c0,1.3,0.1,2.7,0.1,4   c-0.8-0.2-1.6-0.4-2.4-0.5c-1.7,1.8-2,4.5-1.4,6.8c-2.8,0.6-5.5,1.2-8.2,1.9c1,0.7,2,1.9,3.4,1.9c2.4,0.1,5.1-0.1,7,1.7   c3.2,2.9,3.9,7.4,4.4,11.5c0.4,5.4-0.9,11.5-5.4,14.9c-1.9,1.5-4.3,0.7-6.5,0.8c-1.5,0-2.6,1-3.8,1.6c4,2.1,8.6,2.2,13.1,2.1   c0,1.1,0.1,2.3,0.1,3.5c-4.3-1.9-9.2-3.1-13.9-2.2c-6.5,1-12.3,5.5-15.2,11.5c-1.8,3.5-2.5,7.4-2.4,11.2c0.1,4.3-0.2,8.6,0.3,12.9   c0.7,4.2,2.5,8.3,5.5,11.3c6.9,6.9,18.4,7.7,27,3.4c3.9-1.8,6.8-5,8.8-8.7c0,5,0.1,10.1,0.2,15.1c-3.7,0.1-7.5-0.3-11.1-1.2   c-0.5,1.5-0.9,2.9-1.3,4.4c-1.3-1-2.5-2.1-3.9-2.8c-2-0.5-4-0.2-6-0.2c-0.7,2.1-1.9,4.1-2.2,6.3c0,1.7,1.1,3.3,1.8,4.8   c2,0.4,4.2,1.4,6.3,0.8c1.5-1.4,3-2.8,5.2-3.1c-0.2,4.2-0.4,8.4-0.1,12.5c-1.8,1.1-3.5,2.2-5.3,3.2c0.4,0.9,0.7,1.8,1.1,2.7   c1.4,0.6,2.8,1.3,4.2,1.9c0,6.5-0.7,13.1-0.1,19.7c3.8,0.3,7.6-0.3,11.3-0.3c0,50.9,0,101.7,0,152.6c-31.6,0.5-63.1,1-94.7,1.4   c0-92.1,0-184.2,0-276.3c0-81.9,0-163.7,0-245.6c-50.7-19.9-101.4-39.9-152.2-59.8c0,120.1,0,240.1,0,360.2c0,45.6,0,91.1,0,136.7   c-15,0-29.9,0-44.9,0c-0.1-11.8,0-23.6,0-35.3c0-67.7,0-135.5,0-203.2c-20.6,0.1-41.2,0.2-61.8,0.3c-0.1-33.8-0.1-67.5-0.1-101.3   c-43.8-0.4-87.6-0.6-131.4-0.9c0.2,22,0.3,44.1,0.6,66.1c-11,0.1-22.1,0.1-33.1,0.1c0,82.3,0,164.6,0,246.9c0,35.5,0,71.1,0,106.6   c-23.2,22.4-46.4,44.7-69.6,67.1c-0.1-116.6,0-233.1,0-349.7c-6,0-12,0.1-18-0.1c-3.6-0.2-7.2-0.1-10.8-0.1   c-0.1-8.8-0.1-17.6-0.2-26.4c-8.3,0.1-16.6,0.2-24.9,0.2c-0.1-9.3-0.3-18.6-0.4-27.9c-6.7,0-13.4,0.3-20.1,0.4   c-0.3-8.3-0.6-16.5-0.9-24.8c-8.1-0.1-16.3-0.3-24.4-0.5c0.1-8.7,0.2-17.4,0.4-26c-8.6,0.3-17.2,0.7-25.8,1   c-0.4-7.8-0.6-15.5-1-23.3c-15.6-5.3-31.1-10.8-46.7-16.1c-2.8-39.3-5.4-78.5-8.2-117.8c-0.8,9.1-0.9,18.2-1.4,27.3   c-1.4,30.2-2.9,60.5-4.3,90.7c-13.4,7-26.8,13.9-40.3,20.9c0,174.1,0,348.2,0,522.3c-0.1,0-0.1,0-0.2,0v79.2   c91.5,0,183-0.1,274.5-0.1c30.3-0.1,60.6,0.2,91,0.2c6.1-0.6,12.2-0.1,18.3-0.3c222.1-0.1,444.1-0.2,666.2-0.3   c471.7-0.2,943.5-0.5,1415.2-0.7c13.8,0.1,66.6-0.2,80.4,0.2c4.8,0,9.6-0.1,14.4-0.2C2600.2,1071.7,2600.1,1029.1,2600.1,986.6z    M1020.5,1036.2c-0.1-102.1-0.1-204.3-0.2-306.4c16,0,32.1,0,48.1,0c0.1,102.1,0.1,204.2,0.2,306.3   C1052.6,1036.2,1036.6,1036.1,1020.5,1036.2z"
   id="path316"
   style="stroke:none;stroke-opacity:1;fill:#ffffff;fill-opacity:0" />
</g>
</svg>
